<svg width="65" height="65" viewBox="0 0 65 65" fill="none" xmlns="http://www.w3.org/2000/svg">
<path d="M65 32.5C65 14.5489 50.4511 0 32.5 0C14.5489 0 0 14.5489 0 32.5C0 48.7247 11.8828 62.169 27.4219 64.6065V41.8945H19.1699V32.5H27.4219V25.3398C27.4219 17.1957 32.2715 12.6953 39.6982 12.6953C43.2529 12.6953 46.9727 13.3301 46.9727 13.3301V21.3281H42.8721C38.8349 21.3281 37.5781 23.8355 37.5781 26.4062V32.5H46.5917L45.1509 41.8945H37.5781V64.6065C53.1172 62.169 65 48.7247 65 32.5Z" fill="#1877F2"/>
<path d="M45.151 41.8945L46.5918 32.5H37.5782V26.4062C37.5782 23.8355 38.835 21.3281 42.8722 21.3281H46.9727V13.3301C46.9727 13.3301 43.253 12.6953 39.6983 12.6953C32.2716 12.6953 27.4219 17.1957 27.4219 25.3398V32.5H19.1699V41.8945H27.4219V64.6065C29.0786 64.8667 30.7735 65 32.5001 65C34.2266 65 35.9215 64.8667 37.5782 64.6065V41.8945H45.151Z" fill="white"/>
</svg>
