<svg width="65" height="65" viewBox="0 0 65 65" fill="none" xmlns="http://www.w3.org/2000/svg">
<mask id="mask0_34_197" style="mask-type:alpha" maskUnits="userSpaceOnUse" x="0" y="0" width="65" height="65">
<circle cx="32.5" cy="32.5" r="32.5" fill="#C4C4C4"/>
</mask>
<g mask="url(#mask0_34_197)">
<path d="M4.23993 4.51364C-0.853311 9.80402 0.189102 15.4239 0.189102 32.4968C0.189102 46.6747 -2.2846 60.8877 10.6618 64.2337C14.7046 65.2734 50.5247 65.2734 54.562 64.2283C59.9523 62.8375 64.338 58.4653 64.9375 50.8416C65.0213 49.7776 65.0213 15.2348 64.9348 14.1492C64.2975 6.02865 59.2988 1.34859 52.7121 0.400698C51.2025 0.181954 50.9001 0.11714 43.1549 0.103638C15.6822 0.11714 9.65994 -1.10621 4.23993 4.51364Z" fill="url(#paint0_linear_34_197)"/>
<path d="M32.5901 8.58071C22.7844 8.58071 13.4728 7.70843 9.91622 16.8363C8.44712 20.6063 8.66047 25.5024 8.66047 32.513C8.66047 38.6649 8.46333 44.4468 9.91622 48.187C13.4647 57.3203 22.8519 56.4453 32.5847 56.4453C41.9745 56.4453 51.656 57.4229 55.2558 48.187C56.7276 44.3792 56.5116 39.5561 56.5116 32.513C56.5116 23.1637 57.0274 17.128 52.4931 12.5964C47.9022 8.00549 41.6936 8.58071 32.5793 8.58071H32.5901ZM30.4458 12.8935C50.8998 12.8611 53.5031 10.5872 52.0664 42.1756C51.556 53.3478 43.0493 52.1217 32.5928 52.1217C13.5269 52.1217 12.9786 51.5762 12.9786 32.5022C12.9786 13.2068 14.491 12.9043 30.4458 12.8881V12.8935ZM45.3637 16.866C43.7784 16.866 42.493 18.1515 42.493 19.7367C42.493 21.3219 43.7784 22.6074 45.3637 22.6074C46.9489 22.6074 48.2344 21.3219 48.2344 19.7367C48.2344 18.1515 46.9489 16.866 45.3637 16.866ZM32.5901 20.2228C25.8036 20.2228 20.3025 25.7265 20.3025 32.513C20.3025 39.2995 25.8036 44.8005 32.5901 44.8005C39.3765 44.8005 44.8749 39.2995 44.8749 32.513C44.8749 25.7265 39.3765 20.2228 32.5901 20.2228ZM32.5901 24.5356C43.1357 24.5356 43.1492 40.4904 32.5901 40.4904C22.0471 40.4904 22.0309 24.5356 32.5901 24.5356Z" fill="white"/>
</g>
<defs>
<linearGradient id="paint0_linear_34_197" x1="4.36421" y1="60.7772" x2="64.6013" y2="8.64273" gradientUnits="userSpaceOnUse">
<stop stop-color="#FFDD55"/>
<stop offset="0.5" stop-color="#FF543E"/>
<stop offset="1" stop-color="#C837AB"/>
</linearGradient>
</defs>
</svg>
