<svg width="240" height="33" viewBox="0 0 240 33" fill="none" xmlns="http://www.w3.org/2000/svg">
<g clip-path="url(#clip0_28_62)">
<path d="M45.6385 8.87303C57.515 6.98835 69.531 6.11875 81.5554 6.27369C87.7867 6.30727 94.0581 6.61734 100.14 7.09437C106.223 7.5714 112.121 8.19153 117.666 8.73053C124.358 9.35574 131.082 10.1632 137.813 10.8756C144.545 11.5881 151.265 12.1767 157.975 12.47C171.314 12.9644 184.672 12.5697 197.959 11.2885C198.009 11.819 195.901 12.8106 198.103 12.8919C202.495 12.8776 204.727 13.1057 205.873 13.4818C207.02 13.8579 207.094 14.3934 207.144 14.9239C207.154 15.1956 205.531 15.376 204.162 15.529C202.792 15.682 201.687 15.7716 202.814 15.9355C196.238 16.6546 185.232 17.6319 191.886 17.7026C193.008 17.908 195.761 17.6725 198.521 17.4486C201.281 17.2246 204.035 17.0186 205.177 17.2884C207.475 17.8452 203.144 19.1409 205.441 19.6859C207.661 19.4589 212.081 18.9289 214.293 18.649C216.567 18.8992 212.284 20.5301 214.496 20.2502C221.218 19.9397 230.02 18.3665 238.802 16.8945C238.881 17.4239 241.2 17.5895 236.827 18.5791C217.576 21.8774 197.934 24.5695 177.939 25.3231C172.938 25.5145 167.912 25.5472 162.87 25.4621C157.829 25.3771 152.778 25.0676 147.765 24.6384C137.727 23.7923 127.872 22.3357 118.215 21.0727C108.558 19.8097 99.0826 18.7941 89.5514 18.4964C79.9992 18.2299 70.4394 18.4754 60.9134 19.2318C51.4008 19.9527 41.9306 21.1524 32.539 22.8261C23.2212 24.4753 14.003 26.643 4.92752 29.3193C0.822444 30.4761 0.160011 30.3595 1.32625 29.5459C3.60775 28.1931 5.99044 27.0182 8.4531 26.0314C6.44682 26.889 6.21573 26.1171 4.21103 27.016C3.96877 26.2622 7.72526 23.5866 16.2104 21.1796C14.073 21.7071 11.9445 22.2637 9.82508 22.8496C7.63294 23.1879 9.6056 22.0713 9.46755 21.5619C11.6024 20.9656 13.7452 20.4222 13.6756 20.1527L13.4047 19.1161C11.2501 19.6599 6.9506 20.8479 4.83555 21.4967C6.96289 20.8592 9.10957 20.2624 9.03474 20.0109C8.95991 19.7594 8.82118 19.2324 8.74612 18.9749C11.2311 18.1713 13.7583 17.5038 16.3163 16.9756C19.0496 16.3741 21.7913 15.8373 23.9558 15.2398L23.7893 14.4535C21.5674 14.787 18.8284 15.3947 16.1107 16.0962C13.393 16.7977 10.6956 17.5634 8.5312 18.1609C10.6265 17.3058 10.5635 17.0539 10.4191 16.5329C16.8977 14.5103 23.6593 13.8433 30.1378 11.8207C27.9247 12.2288 25.7166 12.6663 23.5135 13.1331C25.5693 12.0192 29.4373 11.1732 33.6212 10.5279C37.8052 9.88272 42.2987 9.42678 45.6385 8.87303Z" fill="#7387F4"/>
</g>
<defs>
<clipPath id="clip0_28_62">
<rect width="239" height="23" fill="white" transform="translate(0 9.14191) rotate(-2.19213)"/>
</clipPath>
</defs>
</svg>
