<svg width="194" height="26" viewBox="0 0 194 26" fill="none" xmlns="http://www.w3.org/2000/svg">
<g clip-path="url(#clip0_28_66)">
<path d="M156.919 7.17471C147.315 5.65078 137.599 4.94762 127.876 5.07291C122.838 5.10006 117.767 5.35078 112.849 5.73651C107.931 6.12223 103.162 6.62366 98.6778 7.05949C93.2663 7.56503 87.8299 8.2179 82.3869 8.79399C76.9439 9.37007 71.5096 9.84604 66.0843 10.0832C55.2982 10.483 44.4972 10.1638 33.7534 9.12783C33.713 9.55677 35.4174 10.3586 33.6367 10.4244C30.0855 10.4128 28.281 10.5972 27.3539 10.9014C26.4268 11.2055 26.3671 11.6384 26.3267 12.0674C26.3183 12.2871 27.6308 12.433 28.738 12.5567C29.8453 12.6804 30.7388 12.7529 29.8279 12.8854C35.1451 13.4668 44.0443 14.2571 38.6643 14.3142C37.7568 14.4804 35.5306 14.2899 33.2991 14.1088C31.0677 13.9277 28.8405 13.7612 27.9167 13.9793C26.0589 14.4296 29.5609 15.4772 27.7035 15.9179C25.9083 15.7344 22.3347 15.3058 20.546 15.0795C18.7073 15.2818 22.1701 16.6005 20.3814 16.3742C14.9461 16.1231 7.82921 14.851 0.728314 13.6608C0.663997 14.0889 -1.21043 14.2228 2.32498 15.023C17.8914 17.6899 33.7737 19.8668 49.9413 20.4761C53.9855 20.6309 58.049 20.6573 62.1258 20.5885C66.2025 20.5198 70.2862 20.2695 74.34 19.9225C82.4569 19.2383 90.4249 18.0605 98.2335 17.0393C106.042 16.018 113.704 15.1968 121.411 14.9561C129.135 14.7406 136.865 14.9391 144.567 15.5507C152.259 16.1337 159.917 17.1037 167.511 18.457C175.045 19.7905 182.499 21.5434 189.837 23.7074C193.156 24.6428 193.692 24.5485 192.749 23.8906C190.904 22.7968 188.978 21.8467 186.986 21.0488C188.609 21.7423 188.795 21.1181 190.416 21.845C190.612 21.2355 187.575 19.072 180.714 17.1257C182.442 17.5522 184.163 18.0023 185.877 18.4761C187.65 18.7496 186.054 17.8467 186.166 17.4349C184.44 16.9527 182.707 16.5132 182.764 16.2954L182.983 15.4571C184.725 15.8969 188.201 16.8575 189.911 17.3821C188.191 16.8667 186.456 16.3841 186.516 16.1807C186.577 15.9774 186.689 15.5512 186.749 15.343C184.74 14.6932 182.697 14.1535 180.628 13.7264C178.418 13.24 176.201 12.806 174.451 12.3229L174.586 11.6871C176.382 11.9567 178.597 12.4481 180.794 13.0153C182.992 13.5825 185.173 14.2017 186.923 14.6848C185.229 13.9934 185.28 13.7897 185.397 13.3684C180.158 11.733 174.691 11.1936 169.452 9.55818C171.242 9.88816 173.027 10.2419 174.809 10.6194C173.146 9.71871 170.019 9.03458 166.636 8.51286C163.253 7.99114 159.619 7.62247 156.919 7.17471Z" fill="#7387F4"/>
</g>
<defs>
<clipPath id="clip0_28_66">
<rect width="193.253" height="18.5976" fill="white" transform="translate(0 7.39209) rotate(-2.19213)"/>
</clipPath>
</defs>
</svg>
