<svg width="65" height="65" viewBox="0 0 65 65" fill="none" xmlns="http://www.w3.org/2000/svg">
<path d="M32.5 65C50.4492 65 65 50.4492 65 32.5C65 14.5508 50.4492 0 32.5 0C14.5508 0 0 14.5508 0 32.5C0 50.4492 14.5508 65 32.5 65Z" fill="url(#paint0_linear_34_181)"/>
<path d="M12.1039 34.0894C15.9032 31.9968 20.1442 30.2501 24.1067 28.4945C30.9239 25.6191 37.7681 22.7935 44.6814 20.1629C46.0264 19.7147 48.4433 19.2765 48.6803 21.2697C48.5504 24.0912 48.0166 26.8962 47.6504 29.7012C46.7212 35.8697 45.6469 42.0171 44.5995 48.1653C44.2386 50.2134 41.6731 51.2734 40.0316 49.9628C36.0866 47.2982 32.1113 44.6594 28.2168 41.9329C26.941 40.6367 28.1241 38.775 29.2634 37.8493C32.5126 34.6472 35.9584 31.9267 39.0378 28.5591C39.8684 26.5533 37.4141 28.2438 36.6046 28.7619C32.1564 31.8272 27.8171 35.0796 23.1274 37.7736C20.7319 39.0921 17.9399 37.9653 15.5454 37.2295C13.3985 36.3406 10.2525 35.4451 12.1037 34.0897L12.1039 34.0894Z" fill="white"/>
<defs>
<linearGradient id="paint0_linear_34_181" x1="43.336" y1="10.8355" x2="27.086" y2="48.75" gradientUnits="userSpaceOnUse">
<stop stop-color="#37AEE2"/>
<stop offset="1" stop-color="#1E96C8"/>
</linearGradient>
</defs>
</svg>
