<svg width="65" height="65" viewBox="0 0 65 65" fill="none" xmlns="http://www.w3.org/2000/svg">
<path d="M32.5 0C50.4492 0 65 14.5508 65 32.5C65 50.4492 50.4492 65 32.5 65C14.5508 65 0 50.4492 0 32.5C0 14.5508 14.5508 0 32.5 0Z" fill="#7F4DA0"/>
<path d="M41.1587 28.3811C41.0007 27.0969 40.6059 26.0886 39.905 25.1954C38.9949 24.0453 37.8317 23.3567 36.1096 22.9481C34.9874 22.6758 34.5339 22.7071 34.128 23.0779C33.7499 23.4252 33.6761 24.1215 33.9651 24.5726C34.1682 24.8999 34.4026 25.017 35.0545 25.145C35.9227 25.3048 36.5227 25.5121 37.0684 25.8241C38.2269 26.4931 38.7663 27.5397 38.8241 29.2343C38.8511 30.0299 38.9199 30.2745 39.1977 30.5567C39.7129 31.0725 40.6295 30.9723 41.0183 30.3549C41.161 30.1223 41.1827 30.021 41.1978 29.4808C41.2077 29.1463 41.1934 28.6484 41.1587 28.3811Z" fill="white"/>
<path d="M45.6959 29.8294C45.467 25.895 43.9281 22.7296 41.174 20.5026C39.6224 19.251 37.7468 18.3906 35.6907 17.9722C34.9376 17.8224 33.551 17.7012 33.3131 17.7705C33.0886 17.8348 32.7712 18.0778 32.6296 18.2977C32.48 18.536 32.4463 19.0682 32.5739 19.376C32.78 19.8906 33.1633 20.0725 34.2368 20.1664C35.8917 20.3112 37.5986 20.8926 38.8883 21.7534C40.3609 22.7334 41.5313 24.0739 42.2885 25.6491C42.9427 27.0026 43.345 28.953 43.3339 30.6996C43.3303 31.3311 43.4278 31.688 43.6818 31.9488C44.0653 32.3498 44.6242 32.4375 45.1175 32.1711C45.6642 31.8836 45.792 31.379 45.6959 29.8294Z" fill="white"/>
<path d="M50.7164 44.9803C50.6395 44.7555 50.4599 44.4085 50.3317 44.2093C49.5234 42.989 45.181 39.5905 43.0129 38.4792C41.775 37.8433 40.8578 37.6313 40.1779 37.8304C39.4466 38.0361 39.0618 38.3764 37.8366 39.8989C37.3428 40.5092 36.8361 41.0809 36.7013 41.1709C36.3678 41.4021 35.7134 41.5885 35.2517 41.5885C34.1805 41.582 32.237 40.8882 30.7424 39.9759C29.5815 39.2695 28.0934 38.0039 26.9516 36.7513C25.6046 35.2801 24.6874 33.9825 23.9625 32.5179C23.0261 30.6356 22.7887 29.4856 23.18 28.6441C23.2762 28.4321 23.4046 28.2073 23.4622 28.1366C23.52 28.0724 24.123 27.5777 24.7899 27.0381C26.0986 25.9974 26.3103 25.7598 26.5539 25.0467C26.8618 24.1409 26.7785 23.2158 26.3038 22.2844C25.9381 21.5777 24.9825 20.036 24.2897 19.0403C23.3725 17.7298 21.089 14.929 20.6334 14.5498C19.8126 13.8818 18.7606 13.7662 17.5996 14.2159C16.3746 14.6913 14.0782 16.5414 13.0968 17.8326C12.2116 19.0018 11.8717 19.8304 11.8204 20.9225C11.7755 21.8218 11.8525 22.1944 12.3271 23.3443C16.0409 32.3636 21.5829 39.5648 29.1967 45.2822C33.1734 48.2694 37.2978 50.5434 41.5762 52.0982C44.0712 53.0038 45.1552 53.0488 46.4317 52.3037C46.9705 51.9824 48.3046 50.6141 49.0487 49.6184C50.2802 47.961 50.7358 47.1966 50.864 46.5863C50.9538 46.1688 50.8832 45.4428 50.7164 44.9803Z" fill="white"/>
<path d="M50.3146 30.7325C50.2325 28.5071 49.8578 26.6817 49.0765 24.6464C48.305 22.6445 47.5243 21.338 46.0501 19.5711C44.6561 17.9144 43.5734 16.9684 41.8562 15.9155C39.4605 14.4484 36.545 13.4775 33.2777 13.0692C32.1635 12.9265 31.9115 12.9367 31.5695 13.1648C30.9071 13.5969 30.916 14.6746 31.5805 15.1002C31.8004 15.2356 31.9957 15.285 32.887 15.4016C34.2551 15.5858 35.1349 15.7594 36.1789 16.0443C40.2725 17.1633 43.4207 19.4507 45.5252 22.8463C47.2865 25.6764 48.0177 28.5068 47.9138 32.1218C47.8776 33.3438 47.9039 33.5588 48.0908 33.8525C48.4486 34.3998 49.3919 34.5081 49.876 34.0539C50.177 33.7771 50.2339 33.5694 50.2932 32.5234C50.3216 31.9777 50.3277 31.1722 50.3146 30.7325Z" fill="white"/>
</svg>
