<svg width="255" height="156" viewBox="0 0 255 156" fill="none" xmlns="http://www.w3.org/2000/svg">
<path d="M2.69618 99.3982C2.38527 99.0876 2.15208 98.7187 1.99663 98.2917C1.88004 97.8646 1.56913 97.5152 1.0639 97.2434C0.986169 96.661 0.869578 96.001 0.714122 95.2634C0.597531 94.4869 0.461508 93.7104 0.306052 92.9339C0.189461 92.1186 0.0923015 91.3227 0.0145739 90.5462C-0.0242899 89.7309 0.0145739 88.9932 0.131165 88.3332C0.208893 87.9838 0.325484 87.6538 0.48094 87.3432C0.675259 87.0326 0.850146 86.7414 1.0056 86.4697C1.19992 86.1591 1.33594 85.8485 1.41367 85.5379C1.53026 85.2273 1.54969 84.9167 1.47197 84.6061C1.70515 84.5673 1.84117 84.4508 1.88004 84.2567C1.95776 84.0237 2.15208 83.9461 2.46299 84.0237C2.73504 83.1696 3.02652 82.3737 3.33743 81.636C3.64834 80.8984 3.97868 80.1801 4.32846 79.4813C4.67823 78.7824 5.028 78.0836 5.37778 77.3848C5.76642 76.6471 6.11619 75.8318 6.4271 74.9388C5.76642 74.3176 5.28062 73.6576 4.96971 72.9588C4.69766 72.2211 4.48391 71.4835 4.32846 70.7458C4.173 70.0081 4.05641 69.2705 3.97868 68.5328C3.90095 67.7563 3.7455 66.9799 3.51232 66.2034C3.97868 65.5045 4.54221 64.9416 5.20289 64.5145C5.86358 64.0486 6.58256 63.6798 7.35983 63.408C8.17597 63.0974 9.05041 62.8645 9.98314 62.7092C10.9159 62.5151 11.9069 62.3015 12.9562 62.0686C14.8217 61.4862 16.4928 61.0397 17.9697 60.7291C19.4465 60.3797 20.8844 60.1079 22.2835 59.9138C23.6826 59.6809 25.14 59.4868 26.6557 59.3315C28.1714 59.1373 29.9203 58.8656 31.9023 58.5161C31.9412 58.6326 31.9995 58.6909 32.0772 58.6909C32.1938 58.6909 32.3298 58.6909 32.4853 58.6909C32.6019 58.9626 32.8156 59.0985 33.1265 59.0985C33.1265 58.982 33.1071 58.885 33.0682 58.8073C33.0682 58.6909 33.0682 58.5938 33.0682 58.5161C33.146 58.5161 33.2431 58.5356 33.3597 58.5744C33.5152 58.6132 33.6318 58.652 33.7095 58.6909C33.8261 58.7297 33.9232 58.7297 34.001 58.6909C34.0787 58.6132 34.0981 58.4773 34.0593 58.2832C34.5256 59.0985 35.128 59.7779 35.8664 60.3215C36.6048 60.8262 37.421 61.2727 38.3149 61.6609C38.3537 62.0103 38.3537 62.2627 38.3149 62.418C38.3149 62.5733 38.2954 62.7286 38.2566 62.8839C38.2177 63.0004 38.1983 63.1557 38.1983 63.3498C38.1983 63.5051 38.2371 63.738 38.3149 64.0486C37.693 65.0969 36.9741 65.9122 36.1579 66.4945C35.3806 67.0769 34.5451 67.5234 33.6512 67.834C32.7573 68.1446 31.8052 68.3775 30.7947 68.5328C29.8231 68.6881 28.8127 68.8628 27.7633 69.057C26.7529 69.2122 25.723 69.4452 24.6737 69.7558C23.6243 70.0664 22.5944 70.5323 21.584 71.1535C21.2731 71.037 20.9816 70.9982 20.7096 71.037C20.4764 71.037 20.2238 71.0758 19.9517 71.1535C19.6797 71.2311 19.3687 71.3088 19.019 71.3864C18.7081 71.4641 18.3194 71.4641 17.8531 71.3864C17.5422 71.6582 17.1729 71.8523 16.7454 71.9688C16.3568 72.0852 15.9487 72.2017 15.5212 72.3182C15.7156 72.7453 15.7933 73.1723 15.7544 73.5994C15.7544 74.0265 15.8127 74.3953 15.9293 74.7059C17.5616 74.8612 19.3687 74.8612 21.3508 74.7059C23.3329 74.5118 25.276 74.3759 27.1804 74.2982C27.2192 74.4924 27.1998 74.6282 27.1221 74.7059C27.0444 74.7835 27.0055 74.9194 27.0055 75.1135C27.3553 75.3465 27.6856 75.6377 27.9965 75.9871C28.3074 76.3365 28.6183 76.6859 28.9292 77.0353C29.279 77.3459 29.6288 77.6177 29.9786 77.8507C30.3283 78.0448 30.7364 78.1224 31.2028 78.0836C31.3971 78.4718 31.5331 78.8795 31.6108 79.3066C31.6886 79.7336 31.6303 80.1801 31.436 80.646C30.6587 81.1507 29.9008 81.6749 29.1624 82.2184C28.424 82.7231 27.6467 83.189 26.8306 83.6161C26.0533 84.0431 25.1983 84.3926 24.2656 84.6643C23.3329 84.9361 22.3224 85.0526 21.2342 85.0137C21.0399 85.0137 20.865 85.0137 20.7096 85.0137C20.593 85.0137 20.4375 84.9361 20.2432 84.7808C19.8545 84.9749 19.3299 85.0526 18.6692 85.0137C18.0474 84.9361 17.5227 84.9943 17.0952 85.1885C16.5511 84.9943 15.9099 84.8973 15.1715 84.8973C14.4719 84.8973 13.8501 84.8002 13.306 84.6061C12.6064 85.6155 11.9458 86.6832 11.3239 87.8091C10.7021 88.8962 10.158 90.0609 9.69166 91.3033C11.2851 91.5362 12.6064 91.6333 13.6558 91.5945C14.7051 91.5556 15.6961 91.478 16.6289 91.3615C17.5616 91.2451 18.5137 91.1286 19.4853 91.0121C20.4958 90.8956 21.72 90.8568 23.158 90.8956C24.1296 90.4297 25.2372 90.1191 26.4808 89.9638C27.7633 89.7697 28.9487 89.498 30.0369 89.1485C30.4255 89.265 30.7558 89.498 31.0279 89.8474C31.2999 90.158 31.5526 90.488 31.7857 90.8374C32.0578 91.148 32.3298 91.4198 32.6019 91.6527C32.8739 91.8857 33.2237 91.9633 33.6512 91.8857C33.8455 92.0798 33.9621 92.3127 34.001 92.5845C34.0787 92.8563 34.137 93.1086 34.1759 93.3416C34.2536 93.5745 34.3507 93.7686 34.4673 93.9239C34.5839 94.0404 34.7977 94.0792 35.1086 94.0404C34.3702 95.5546 33.5346 96.7193 32.6019 97.5346C31.708 98.3499 30.6781 98.9905 29.5122 99.4564C28.3852 99.8835 27.1026 100.213 25.6647 100.446C24.2656 100.641 22.6916 100.893 20.9427 101.203C20.5152 101.281 20.146 101.281 19.8351 101.203C19.5631 101.087 19.2716 101.029 18.9607 101.029C17.8725 101.223 16.5706 101.417 15.0549 101.611C13.578 101.805 12.0818 101.883 10.5661 101.844C9.05041 101.805 7.59302 101.611 6.19392 101.262C4.79482 100.912 3.62891 100.291 2.69618 99.3982Z" fill="#8B9DFF"/>
<path d="M67.6959 96.4863C67.4627 97.1463 67.1129 97.8258 66.6466 98.5246C66.2191 99.1846 65.6944 99.7864 65.0726 100.33C64.4896 100.835 63.8289 101.262 63.0905 101.611C62.3521 101.961 61.5748 102.155 60.7587 102.194C60.2535 102.077 59.9037 101.941 59.7094 101.786C59.5539 101.669 59.379 101.553 59.1847 101.436C59.0681 101.359 58.9515 101.301 58.8349 101.262C58.7572 101.184 58.6795 101.126 58.6018 101.087L57.9022 100.796L58.1354 100.039C58.2131 99.7282 58.1937 99.4952 58.0771 99.3399C57.9605 99.1458 57.7273 98.8934 57.3776 98.5828C57.261 98.4664 57.1444 98.3499 57.0278 98.2334C56.9112 98.117 56.814 98.0005 56.7363 97.884L55.7453 96.7775L57.3193 96.3699C58.2909 96.0981 58.9321 95.7487 59.243 95.3216C59.5928 94.8945 59.7288 94.1763 59.6511 93.1669C58.8738 93.0116 58.2131 92.9921 57.669 93.1086C57.1638 93.2251 56.6391 93.361 56.095 93.5163C55.3955 93.7104 54.6765 93.8851 53.9381 94.0404C53.2386 94.1569 52.4613 94.2151 51.6063 94.2151C51.2954 94.2151 51.0039 94.2151 50.7318 94.2151C50.4598 94.1763 50.1683 94.1375 49.8574 94.0986L49.2744 93.9822C49.1967 93.5551 49.119 93.3222 49.0413 93.2833C48.9635 93.2057 48.8858 93.128 48.8081 93.0504C48.6138 92.8563 48.4 92.6039 48.1668 92.2933C47.9725 91.9439 47.9336 91.5168 48.0502 91.0121C47.8559 90.6627 47.7393 90.3133 47.7005 89.9638C47.4673 90.4297 47.2924 90.915 47.1758 91.4198L46.9426 92.0021L46.3597 92.1186C46.2819 92.1574 46.2236 92.2545 46.1848 92.4098C46.1459 92.5263 46.1265 92.6233 46.1265 92.701L45.835 93.691C45.7573 93.7686 45.6795 93.8463 45.6018 93.9239C45.5241 93.9628 45.4464 94.021 45.3686 94.0986C45.2909 94.4481 45.1937 94.7975 45.0772 95.1469C44.9606 95.4963 44.844 95.8263 44.7274 96.1369C44.5331 96.6416 44.3582 97.1463 44.2027 97.6511C44.0861 98.117 44.0473 98.5828 44.0861 99.0487L43.8529 99.6893C43.6586 99.9223 43.4449 100.116 43.2117 100.272C42.9785 100.388 42.7453 100.505 42.5121 100.621C42.4344 100.699 42.3178 100.776 42.1624 100.854C42.0458 100.893 41.9486 100.932 41.8709 100.971L41.696 101.611L40.9965 101.728C40.569 101.805 40.258 101.864 40.0637 101.902C39.9083 101.941 39.714 101.961 39.4808 101.961L38.8978 101.902C38.4703 101.553 38.14 101.281 37.9068 101.087C37.6736 100.854 37.4016 100.641 37.0906 100.446C36.7409 99.9805 36.5466 99.6311 36.5077 99.3982C36.4688 99.1652 36.43 98.9517 36.3911 98.7576C36.3134 98.5246 36.2745 98.3305 36.2745 98.1752C36.2356 98.0199 36.1773 97.9034 36.0996 97.8258L35.3418 97.1269L35.983 96.6028L36.0413 95.6128C36.8186 93.6327 37.6347 91.7304 38.4897 89.9056C39.3836 88.0809 40.2969 86.2173 41.2296 84.3149C41.5406 83.6937 41.832 83.0725 42.1041 82.4513C42.415 81.8302 42.7259 81.209 43.0368 80.5878C42.9979 80.4713 42.9785 80.3354 42.9785 80.1801C42.9785 80.0248 43.0174 79.8501 43.0951 79.656C43.5226 78.996 43.8724 78.4136 44.1444 77.9089C44.4165 77.3654 44.6885 76.8218 44.9606 76.2783C45.2715 75.6183 45.5824 74.9777 45.8933 74.3565C46.2431 73.7353 46.6706 73.0947 47.1758 72.4347L48.1085 72.027C48.2251 71.9882 48.3611 71.9494 48.5166 71.9105C48.6721 71.8329 48.8469 71.7941 49.0413 71.7941L49.9157 71.9105C51.0039 71.4058 51.956 70.707 52.7722 69.814C53.5883 68.8822 54.4239 67.7757 55.2789 66.4945L55.8619 65.6792L56.6197 66.1451C56.814 66.2616 57.0861 66.3781 57.4358 66.4945C57.7856 66.5722 58.1548 66.6693 58.5435 66.7857C59.243 66.941 59.9037 67.1157 60.5255 67.3099C61.1473 67.504 61.6526 67.7952 62.0412 68.1834C62.2744 68.8046 62.4104 69.2705 62.4493 69.5811C62.4881 69.8917 62.5464 70.2023 62.6242 70.5129C62.7408 71.1729 62.8379 71.8329 62.9156 72.4929C63.0322 73.1529 63.11 73.8906 63.1488 74.7059C63.3431 75.3659 63.4986 76.0259 63.6152 76.6859C63.7706 77.3071 63.9067 77.9477 64.0233 78.6077C64.2176 79.5395 64.4119 80.4519 64.6062 81.3448C64.8005 82.199 65.0532 83.0143 65.3641 83.7908C65.675 83.7908 65.8693 83.8102 65.947 83.849C66.1413 83.7714 66.3357 83.7131 66.53 83.6743C66.7632 83.6355 67.0158 83.5967 67.2878 83.5578L67.9291 83.4996L68.1623 84.082C68.2011 84.2761 68.3954 84.4702 68.7452 84.6643C69.2504 84.7032 69.6196 84.8196 69.8528 85.0137C70.086 85.169 70.2998 85.3438 70.4941 85.5379C70.6495 85.6932 70.805 85.8096 70.9605 85.8873L71.8349 86.2367L71.3685 87.1103C70.9799 87.8091 70.4164 88.4885 69.6779 89.1485C68.9784 89.7697 68.1817 90.2939 67.2878 90.7209C67.3267 90.9539 67.3461 91.1868 67.3461 91.4198C67.385 91.6139 67.4433 91.8274 67.521 92.0604C67.6376 92.7204 67.7348 93.3998 67.8125 94.0986C67.8902 94.7975 67.8902 95.5157 67.8125 96.2534L67.6959 96.4863ZM50.8484 86.4114C52.0143 86.3338 53.0637 86.2561 53.9964 86.1785C54.968 86.062 56.0367 85.8873 57.2027 85.6543C56.9306 84.4896 56.6391 83.2861 56.3282 82.0437C56.0173 80.7625 55.687 79.5007 55.3372 78.2583L54.9874 78.8407C54.2102 79.656 53.4523 80.5684 52.7139 81.5778C52.0143 82.5872 51.412 83.5384 50.9067 84.4314C50.6735 84.7808 50.4404 85.1302 50.2072 85.4796C49.974 85.8291 49.7602 86.1785 49.5659 86.5279C49.7991 86.4891 50.0129 86.4697 50.2072 86.4697C50.4404 86.4697 50.6541 86.4502 50.8484 86.4114Z" fill="#8B9DFF"/>
<path d="M71.3102 75.1718C71.5823 74.3565 72.0098 73.6576 72.5927 73.0753C73.2146 72.4929 73.8752 72.0076 74.5748 71.6194C75.3132 71.1923 76.071 70.8429 76.8483 70.5711C77.6256 70.2993 78.364 70.0664 79.0636 69.8723C80.6181 69.2122 82.2698 68.5911 84.0187 68.0087C85.8064 67.3875 87.6136 66.844 89.4402 66.3781C91.3057 65.9122 93.21 65.621 95.1532 65.5045C97.0964 65.3492 99.1367 65.5822 101.274 66.2034C101.391 66.5916 101.566 66.9604 101.799 67.3099C102.032 67.6593 102.265 68.0087 102.498 68.3581C102.77 68.7075 103.004 69.057 103.198 69.4064C103.392 69.717 103.509 70.047 103.548 70.3964C103.936 70.7458 104.247 71.1341 104.48 71.5611C104.714 71.9494 104.753 72.4735 104.597 73.1335C104.208 73.4441 103.82 73.7353 103.431 74.0071C103.081 74.24 102.693 74.4535 102.265 74.6477C100.827 74.2982 99.3699 74.1818 97.8931 74.2982C96.4162 74.4147 95.0949 74.5118 93.929 74.5894C93.5792 74.24 93.1517 74.0653 92.6465 74.0653C92.1801 74.0653 91.6749 74.1429 91.1308 74.2982C90.6255 74.4535 90.1009 74.6088 89.5568 74.7641C89.0516 74.9194 88.5658 74.9582 88.0994 74.8806C87.7108 75.1912 87.225 75.4047 86.642 75.5212C86.0979 75.5989 85.4955 75.6765 84.8348 75.7541C84.796 75.9483 84.8348 76.0842 84.9514 76.1618C85.068 76.2006 85.0874 76.3171 85.0097 76.5112C85.2429 76.783 85.5344 76.9771 85.8842 77.0936C86.2728 77.2101 86.6614 77.3265 87.0501 77.443C87.4776 77.5595 87.8468 77.7148 88.1577 77.9089C88.4686 78.0642 88.6823 78.336 88.7989 78.7242C89.3819 78.7242 89.8871 78.8601 90.3146 79.1319C90.7421 79.4036 91.0919 79.7336 91.3639 80.1219C91.636 80.5101 91.8303 80.9372 91.9469 81.4031C92.1024 81.8302 92.1801 82.2184 92.1801 82.5678C92.2967 82.8784 92.4327 83.0143 92.5882 82.9755C92.7436 82.9366 92.9185 83.0143 93.1128 83.2084C93.2294 83.7131 93.5209 84.2373 93.9873 84.7808C94.4536 85.2855 94.8228 85.8485 95.0949 86.4697C95.1726 87.4403 95.2309 88.3138 95.2698 89.0903C95.3086 89.828 95.1726 90.585 94.8617 91.3615C94.2787 92.798 93.4626 94.0792 92.4133 95.2051C91.4028 96.331 90.2369 97.3405 88.9155 98.2334C87.633 99.0876 86.2534 99.8252 84.7765 100.446C83.2997 101.068 81.8617 101.592 80.4627 102.019C80.3072 101.98 80.1517 101.98 79.9963 102.019C79.8408 102.058 79.802 101.961 79.8797 101.728C79.5688 101.999 79.219 102.174 78.8304 102.252C78.4806 102.329 78.092 102.349 77.6645 102.31C77.237 102.31 76.79 102.291 76.3237 102.252C75.8962 102.213 75.4881 102.232 75.0994 102.31C74.8274 102.038 74.5748 101.766 74.3416 101.495C74.1473 101.262 73.9918 100.951 73.8752 100.563C73.6809 100.563 73.5838 100.466 73.5838 100.272C73.6226 100.078 73.5643 99.9805 73.4089 99.9805C73.6421 99.5923 73.7392 99.3787 73.7003 99.3399C73.7003 99.2623 73.6421 99.204 73.5255 99.1652C73.4477 99.1264 73.37 99.0876 73.2923 99.0487C73.2146 98.9711 73.1951 98.874 73.234 98.7576C73.3894 98.447 73.4477 98.0975 73.4089 97.7093C73.37 97.2822 73.3311 96.8552 73.2923 96.4281C73.2534 96.001 73.2728 95.5934 73.3506 95.2051C73.4672 94.8169 73.7586 94.5063 74.225 94.2733C75.5464 94.4286 76.79 94.3898 77.9559 94.1569C79.1607 93.8851 80.2878 93.5163 81.3371 93.0504C82.3864 92.5845 83.3774 92.0798 84.3102 91.5362C85.2818 90.9927 86.2339 90.5074 87.1667 90.0803C87.2832 89.7309 87.4387 89.4397 87.633 89.2068C87.8662 88.9738 88.0994 88.7603 88.3326 88.5662C88.5658 88.3721 88.7795 88.1585 88.9738 87.9256C89.1681 87.6926 89.3042 87.4014 89.3819 87.052C89.4208 86.7803 89.343 86.625 89.1487 86.5861C88.9933 86.5085 88.9155 86.3532 88.9155 86.1202L88.2743 85.9455C87.5359 85.5185 86.7003 85.169 85.7676 84.8973C84.8348 84.5867 84.0381 84.2567 83.3774 83.9073C82.9499 84.1402 82.5419 84.1984 82.1532 84.082C81.8035 83.9655 81.3371 83.849 80.7541 83.7325C79.4328 83.6549 78.1503 83.519 76.9066 83.3249C75.7018 83.1308 74.5359 82.7813 73.4089 82.2766C73.3311 82.0825 73.234 81.9078 73.1174 81.7525C73.0008 81.5972 72.787 81.5584 72.4761 81.636C72.243 81.3254 72.0098 81.0343 71.7766 80.7625C71.5434 80.4519 71.3297 80.1219 71.1353 79.7725C71.2131 79.3066 71.2714 78.9183 71.3102 78.6077C71.3491 78.2583 71.2325 77.9283 70.9605 77.6177C71.1159 77.113 71.2325 76.7053 71.3102 76.3947C71.388 76.0842 71.388 75.6765 71.3102 75.1718Z" fill="#8B9DFF"/>
<path d="M116.723 86.1202C116.451 86.3532 116.217 86.6444 116.023 86.9938C115.829 87.3044 115.634 87.6344 115.44 87.9838C115.246 88.4109 115.032 88.8185 114.799 89.2068C114.566 89.595 114.274 89.9444 113.924 90.255C113.73 90.8374 113.536 91.3033 113.341 91.6527C113.147 91.9633 112.836 92.3321 112.409 92.7592C112.02 94.3122 111.107 96.001 109.669 97.8258C109.63 98.1752 109.513 98.5246 109.319 98.874C109.164 99.1846 108.989 99.4952 108.794 99.8058C108.717 99.9223 108.639 100.058 108.561 100.213C108.483 100.33 108.425 100.427 108.386 100.505L108.27 101.087C108.075 101.398 107.862 101.669 107.628 101.902C107.395 102.135 107.182 102.349 106.987 102.543C106.909 102.659 106.773 102.815 106.579 103.009L105.705 103.358C102.868 102.97 101.138 101.456 100.516 98.8158L100.575 98.2334C100.652 98.0393 100.711 97.8452 100.75 97.6511C100.827 97.4181 100.905 97.1852 100.983 96.9522C101.138 96.4087 101.313 95.8651 101.507 95.3216C101.741 94.7781 102.071 94.2928 102.498 93.8657C102.576 93.5939 102.751 93.1669 103.023 92.5845C103.295 91.9633 103.762 91.0509 104.422 89.8474C104.966 88.9156 105.394 88.1779 105.705 87.6344C106.016 87.0908 106.268 86.6638 106.463 86.3532C106.074 85.732 105.608 85.169 105.063 84.6643C104.558 83.6937 104.111 82.7619 103.723 81.869C103.373 80.976 103.101 80.1801 102.906 79.4813C102.868 78.9766 102.809 78.5495 102.732 78.2001C102.654 77.8507 102.576 77.4818 102.498 77.0936C102.382 76.6665 102.285 76.2395 102.207 75.8124C102.129 75.3853 102.09 74.9388 102.09 74.4729C101.896 74.2012 101.779 73.9294 101.741 73.6576L101.857 73.0753C101.974 72.8035 101.993 72.4541 101.915 72.027C101.838 71.5611 101.741 71.0952 101.624 70.6293C101.546 70.2411 101.449 69.814 101.333 69.3481C101.255 68.8822 101.235 68.4164 101.274 67.9505C101.313 67.4846 101.43 67.0575 101.624 66.6693C101.857 66.2422 102.226 65.8734 102.732 65.5628L103.723 65.5045C104.072 65.6986 104.403 65.8928 104.714 66.0869C105.063 66.2422 105.394 66.4169 105.705 66.611C106.132 66.8051 106.54 66.9993 106.929 67.1934C107.318 67.3875 107.726 67.6399 108.153 67.9505L108.561 68.7658L109.319 69.4064V70.047C109.358 70.2023 109.377 70.4158 109.377 70.6876C109.377 71.1923 109.455 71.5029 109.611 71.6194L109.844 72.3182C109.844 72.8617 109.902 73.3859 110.019 73.8906C110.135 74.3565 110.252 74.803 110.368 75.23C110.485 75.6571 110.602 76.1036 110.718 76.5695C110.835 77.0353 110.854 77.5401 110.776 78.0836C111.01 77.9671 111.204 77.8312 111.359 77.676C111.437 77.5983 111.515 77.5401 111.593 77.5012C111.67 77.4624 111.748 77.4042 111.826 77.3265L115.265 72.6676L115.149 72.0852L116.373 70.9205C116.684 70.6099 116.975 70.3187 117.247 70.047C117.558 69.7752 117.811 69.484 118.005 69.1734L118.646 68.7075C119.89 66.7663 121.658 65.5628 123.951 65.0969L124.767 64.9804L125.001 65.7375C125.156 66.1645 125.467 66.5528 125.933 66.9022C126.439 67.2516 126.963 67.5816 127.507 67.8922L128.032 68.2416C128.226 68.6299 128.323 68.9211 128.323 69.1152C128.323 69.3093 128.304 69.484 128.265 69.6393L128.498 70.2217C128.187 71.1535 127.799 71.8329 127.332 72.26C126.905 72.687 126.477 73.0753 126.05 73.4247C125.7 73.7353 125.37 74.0265 125.059 74.2982C124.787 74.5312 124.573 74.8418 124.418 75.23L124.01 75.6959C123.193 76.1618 122.669 76.783 122.436 77.5595L122.261 78.2583H121.561C121.522 78.2583 121.425 78.336 121.27 78.4913C121.153 78.6077 120.959 78.9377 120.687 79.4813C120.415 79.8695 120.22 80.1219 120.104 80.2384C119.987 80.3548 119.89 80.4519 119.812 80.5295C119.773 80.6848 119.715 80.8401 119.637 80.9954C119.599 81.1119 119.54 81.2672 119.462 81.4613C118.957 81.966 118.646 82.3543 118.53 82.6261C118.413 82.859 118.277 83.1308 118.122 83.4414C117.966 83.752 117.811 84.0626 117.655 84.3731C117.539 84.6449 117.325 84.9361 117.014 85.2467L116.723 86.1202Z" fill="#8B9DFF"/>
<path d="M2.75447 152.894C2.59902 152.739 2.46299 152.564 2.3464 152.37C2.22981 152.137 2.13265 151.846 2.05492 151.497C1.51083 150.837 1.08333 150.079 0.772418 149.225C0.461508 148.371 0.247757 147.498 0.131165 146.605C0.0145739 145.673 -0.00485797 144.741 0.0728696 143.809C0.150597 142.878 0.286621 142.004 0.48094 141.189C0.597531 140.8 0.694691 140.393 0.772418 139.966C0.966737 139.228 1.16106 138.51 1.35538 137.811C1.54969 137.073 1.84117 136.472 2.22981 136.006C2.07436 135.579 2.09379 135.113 2.28811 134.608C2.48243 134.103 2.67674 133.637 2.87106 133.21C2.94879 133.094 3.00709 132.997 3.04595 132.919C3.08481 132.803 3.12368 132.706 3.16254 132.628C3.62891 131.269 4.07584 129.968 4.50334 128.726C4.96971 127.445 5.41664 126.222 5.84414 125.057C6.62142 122.922 7.35983 120.825 8.05938 118.768C8.79779 116.71 9.45848 114.516 10.0414 112.187C10.3523 111.954 10.6244 111.799 10.8576 111.721C10.9353 111.682 11.0325 111.643 11.1491 111.605C11.2656 111.566 11.4017 111.546 11.5571 111.546C12.3733 111.973 13.3254 112.381 14.4136 112.769C15.5407 113.119 16.4928 113.293 17.2701 113.293L18.2611 114.167C18.7664 114.749 19.1939 115.37 19.5436 116.03C19.9323 116.652 20.0489 117.467 19.8934 118.476C19.6602 118.826 19.4659 119.039 19.3105 119.117C19.0773 120.01 18.8247 120.806 18.5526 121.505C18.2806 122.165 18.0085 122.805 17.7365 123.427C17.4256 124.125 17.1341 124.824 16.862 125.523C16.59 126.222 16.3568 127.076 16.1625 128.085C15.9293 128.357 15.7738 128.59 15.6961 128.784C15.6573 128.978 15.599 129.173 15.5212 129.367C15.4435 129.6 15.3463 129.852 15.2298 130.124C15.1132 130.357 14.9383 130.57 14.7051 130.764C14.5496 131.968 14.3165 132.958 14.0055 133.734C13.6946 134.472 13.3837 135.21 13.0728 135.947C12.5287 137.306 12.0235 138.665 11.5571 140.024C11.0908 141.344 10.8187 142.858 10.741 144.566C11.2073 144.45 11.6349 144.392 12.0235 144.392C12.5287 144.392 13.0145 144.469 13.4809 144.625C14.88 143.926 16.3957 143.499 18.0279 143.343C19.6991 143.188 21.3508 143.091 22.9831 143.052C24.3433 143.052 25.6064 142.994 26.7723 142.878C27.1609 143.149 27.4136 143.305 27.5301 143.343C27.6467 143.343 27.8411 143.343 28.1131 143.343C28.2297 143.343 28.3463 143.343 28.4629 143.343C28.5795 143.343 28.7349 143.363 28.9292 143.402C29.4733 143.945 29.998 144.333 30.5032 144.566C31.0085 144.76 31.5526 144.955 32.1355 145.149C32.6407 145.343 33.1265 145.556 33.5929 145.789C34.0981 145.983 34.5839 146.255 35.0503 146.605L35.575 149.575C35.8859 150.002 36.0219 150.293 35.983 150.448C35.983 150.759 35.9053 151.031 35.7498 151.264L35.8664 152.021C35.128 152.176 34.6422 152.351 34.409 152.545C34.1759 152.7 33.9232 152.914 33.6512 153.185C33.2237 153.224 32.8156 153.244 32.427 153.244C31.6497 153.244 30.853 153.36 30.0369 153.593C28.8709 153.166 27.5884 152.952 26.1893 152.952C25.6453 152.952 25.0817 152.972 24.4988 153.011C23.9547 153.049 23.4106 153.108 22.8665 153.185C22.2835 153.263 21.7006 153.341 21.1176 153.418C20.5347 153.457 19.9517 153.477 19.3687 153.477C18.9024 153.554 18.572 153.612 18.3777 153.651C18.1834 153.69 17.9891 153.748 17.7948 153.826C16.4734 154.253 15.0354 154.68 13.4809 155.107C11.9652 155.534 10.4301 155.748 8.87552 155.748C6.58256 155.748 4.73653 155.165 3.33743 154.001C3.18197 153.651 3.06538 153.418 2.98766 153.302C2.90993 153.185 2.8322 153.049 2.75447 152.894Z" fill="#8B9DFF"/>
<path d="M81.6752 122.262C81.7141 122.534 81.7141 122.747 81.6752 122.902C81.6752 123.019 81.6558 123.135 81.6169 123.252C81.6169 123.368 81.6169 123.504 81.6169 123.659C81.6169 123.776 81.6558 123.97 81.7335 124.242C80.9174 125.562 79.9652 126.474 78.877 126.979C77.8277 127.445 76.6812 127.794 75.4376 128.027C74.1939 128.221 72.9114 128.435 71.59 128.668C70.3075 128.901 69.025 129.405 67.7425 130.182C67.2373 129.988 66.7709 129.988 66.3434 130.182C65.9548 130.376 65.3718 130.434 64.5946 130.357C64.3614 130.59 64.0699 130.764 63.7201 130.881C63.3703 130.958 63.0206 131.056 62.6708 131.172C62.8263 131.521 62.8846 131.89 62.8457 132.278C62.8457 132.628 62.904 132.919 63.0206 133.152C64.3808 133.268 65.8771 133.249 67.5093 133.094C69.1805 132.938 70.8128 132.841 72.4062 132.803C72.445 132.997 72.4256 133.133 72.3479 133.21C72.2702 133.249 72.2507 133.346 72.2896 133.501C72.5616 133.696 72.8337 133.948 73.1057 134.259C73.3778 134.53 73.6498 134.802 73.9219 135.074C74.1939 135.346 74.466 135.579 74.738 135.773C75.0489 135.928 75.3987 135.986 75.7873 135.947C75.9428 136.258 76.04 136.607 76.0788 136.996C76.1565 137.345 76.1177 137.714 75.9622 138.102C75.3404 138.529 74.7186 138.976 74.0968 139.442C73.4749 139.869 72.8143 140.257 72.1147 140.606C71.454 140.956 70.735 141.247 69.9578 141.48C69.2194 141.674 68.3838 141.752 67.451 141.713C67.2567 141.713 67.1013 141.713 66.9847 141.713C66.907 141.713 66.7904 141.655 66.6349 141.538C66.324 141.732 65.8771 141.79 65.2941 141.713C64.75 141.635 64.3225 141.693 64.0116 141.887C63.5841 141.693 63.0594 141.616 62.4376 141.655C61.8547 141.655 61.33 141.577 60.8636 141.422C60.2418 142.237 59.6783 143.11 59.1731 144.042C58.6678 144.974 58.2209 145.964 57.8323 147.012C59.1536 147.206 60.2418 147.284 61.0968 147.245C61.9907 147.206 62.8263 147.148 63.6035 147.071C64.3808 146.954 65.1775 146.857 65.9937 146.779C66.8098 146.663 67.8397 146.624 69.0833 146.663C69.8606 146.236 70.7739 145.964 71.8232 145.848C72.9114 145.692 73.9024 145.459 74.7963 145.149C75.1072 145.265 75.3793 145.479 75.6124 145.789C75.8456 146.061 76.0594 146.333 76.2537 146.605C76.4869 146.838 76.7201 147.051 76.9532 147.245C77.1864 147.439 77.4779 147.517 77.8277 147.478C77.9831 147.633 78.0803 147.828 78.1192 148.061C78.1969 148.255 78.2552 148.449 78.2941 148.643C78.3329 148.837 78.3912 149.012 78.4689 149.167C78.5855 149.284 78.7604 149.322 78.9936 149.284C78.4106 150.565 77.7305 151.555 76.9532 152.254C76.2148 152.914 75.3598 153.418 74.3882 153.768C73.4166 154.117 72.3285 154.389 71.1237 154.583C69.9578 154.777 68.6558 155.01 67.2179 155.282C66.8681 155.36 66.5766 155.34 66.3434 155.224C66.1102 155.146 65.8382 155.107 65.5273 155.107C64.6334 155.301 63.5647 155.476 62.321 155.631C61.0774 155.787 59.8143 155.845 58.5318 155.806C57.2493 155.767 56.0251 155.592 54.8592 155.282C53.6933 155.01 52.7411 154.505 52.0027 153.768C51.6918 153.496 51.478 153.185 51.3614 152.836C51.2837 152.448 51.0311 152.157 50.6036 151.962C50.5647 151.458 50.487 150.895 50.3704 150.274C50.2538 149.652 50.1372 149.012 50.0206 148.352C49.904 147.653 49.8069 146.973 49.7292 146.313C49.6903 145.653 49.7292 145.052 49.8457 144.508C49.9623 143.926 50.1955 143.402 50.5453 142.936C50.9339 142.47 51.07 141.965 50.9534 141.422C51.1477 141.383 51.2643 141.286 51.3031 141.13C51.342 140.936 51.4975 140.859 51.7695 140.897C52.0027 140.199 52.2553 139.539 52.5273 138.917C52.7994 138.296 53.0714 137.694 53.3435 137.112C53.6544 136.53 53.9459 135.947 54.2179 135.365C54.5288 134.744 54.8203 134.064 55.0924 133.327C54.5483 132.822 54.1402 132.278 53.8681 131.696C53.635 131.075 53.4601 130.473 53.3435 129.891C53.2269 129.27 53.1297 128.648 53.052 128.027C52.9743 127.367 52.8383 126.707 52.6439 126.047C53.0326 125.465 53.4989 124.999 54.043 124.649C54.626 124.261 55.2478 123.951 55.9085 123.718C56.5692 123.485 57.2882 123.291 58.0654 123.135C58.8427 122.98 59.6589 122.805 60.5139 122.611C62.0684 122.107 63.4481 121.718 64.6529 121.446C65.8965 121.175 67.1013 120.961 68.2672 120.806C69.472 120.612 70.7156 120.437 71.9981 120.282C73.2806 120.126 74.738 119.894 76.3703 119.583C76.7201 119.932 77.0504 120.107 77.3613 120.107C77.5168 119.758 77.6917 119.661 77.886 119.816C78.1192 119.932 78.2163 119.816 78.1775 119.466C78.5661 120.126 79.0519 120.689 79.6349 121.155C80.2567 121.582 80.9368 121.951 81.6752 122.262Z" fill="#8B9DFF"/>
<path d="M93.1478 128.843C93.4198 128.027 93.8473 127.328 94.4303 126.746C95.0521 126.164 95.7128 125.678 96.4124 125.29C97.1508 124.863 97.9086 124.514 98.6859 124.242C99.4632 123.97 100.202 123.737 100.901 123.543C102.456 122.883 104.107 122.262 105.856 121.679C107.644 121.058 109.451 120.515 111.278 120.049C113.143 119.583 115.048 119.292 116.991 119.175C118.934 119.02 120.974 119.253 123.112 119.874C123.228 120.262 123.403 120.631 123.636 120.981C123.87 121.33 124.103 121.679 124.336 122.029C124.608 122.378 124.841 122.728 125.036 123.077C125.23 123.388 125.346 123.718 125.385 124.067C125.774 124.417 126.085 124.805 126.318 125.232C126.551 125.62 126.59 126.144 126.435 126.804C126.046 127.115 125.657 127.406 125.269 127.678C124.919 127.911 124.53 128.124 124.103 128.318C122.665 127.969 121.207 127.853 119.731 127.969C118.254 128.085 116.932 128.183 115.767 128.26C115.417 127.911 114.989 127.736 114.484 127.736C114.018 127.736 113.512 127.814 112.968 127.969C112.463 128.124 111.938 128.28 111.394 128.435C110.889 128.59 110.403 128.629 109.937 128.551C109.548 128.862 109.063 129.075 108.48 129.192C107.935 129.27 107.333 129.347 106.672 129.425C106.634 129.619 106.672 129.755 106.789 129.833C106.906 129.871 106.925 129.988 106.847 130.182C107.08 130.454 107.372 130.648 107.722 130.764C108.11 130.881 108.499 130.997 108.888 131.114C109.315 131.23 109.684 131.386 109.995 131.58C110.306 131.735 110.52 132.007 110.637 132.395C111.219 132.395 111.725 132.531 112.152 132.803C112.58 133.074 112.929 133.404 113.202 133.793C113.474 134.181 113.668 134.608 113.784 135.074C113.94 135.501 114.018 135.889 114.018 136.239C114.134 136.549 114.27 136.685 114.426 136.646C114.581 136.607 114.756 136.685 114.95 136.879C115.067 137.384 115.358 137.908 115.825 138.452C116.291 138.956 116.66 139.519 116.932 140.14C117.01 141.111 117.068 141.985 117.107 142.761C117.146 143.499 117.01 144.256 116.699 145.032C116.116 146.469 115.3 147.75 114.251 148.876C113.24 150.002 112.074 151.011 110.753 151.904C109.471 152.758 108.091 153.496 106.614 154.117C105.137 154.738 103.699 155.262 102.3 155.69C102.145 155.651 101.989 155.651 101.834 155.69C101.678 155.728 101.64 155.631 101.717 155.398C101.406 155.67 101.057 155.845 100.668 155.922C100.318 156 99.9295 156.02 99.502 155.981C99.0745 155.981 98.6276 155.961 98.1612 155.922C97.7337 155.884 97.3257 155.903 96.937 155.981C96.665 155.709 96.4124 155.437 96.1792 155.165C95.9849 154.932 95.8294 154.622 95.7128 154.234C95.5185 154.234 95.4213 154.137 95.4213 153.942C95.4602 153.748 95.4019 153.651 95.2464 153.651C95.4796 153.263 95.5768 153.049 95.5379 153.011C95.5379 152.933 95.4796 152.875 95.363 152.836C95.2853 152.797 95.2076 152.758 95.1299 152.719C95.0521 152.642 95.0327 152.545 95.0716 152.428C95.227 152.118 95.2853 151.768 95.2464 151.38C95.2076 150.953 95.1687 150.526 95.1299 150.099C95.091 149.672 95.1104 149.264 95.1881 148.876C95.3047 148.488 95.5962 148.177 96.0626 147.944C97.384 148.099 98.6276 148.061 99.7935 147.828C100.998 147.556 102.125 147.187 103.175 146.721C104.224 146.255 105.215 145.751 106.148 145.207C107.119 144.663 108.071 144.178 109.004 143.751C109.121 143.402 109.276 143.11 109.471 142.878C109.704 142.645 109.937 142.431 110.17 142.237C110.403 142.043 110.617 141.829 110.811 141.596C111.006 141.363 111.142 141.072 111.219 140.723C111.258 140.451 111.181 140.296 110.986 140.257C110.831 140.179 110.753 140.024 110.753 139.791L110.112 139.616C109.373 139.189 108.538 138.84 107.605 138.568C106.672 138.257 105.876 137.927 105.215 137.578C104.788 137.811 104.379 137.869 103.991 137.753C103.641 137.636 103.175 137.52 102.592 137.403C101.27 137.326 99.9878 137.19 98.7442 136.996C97.5394 136.802 96.3735 136.452 95.2464 135.947C95.1687 135.753 95.0716 135.579 94.955 135.423C94.8384 135.268 94.6246 135.229 94.3137 135.307C94.0805 134.996 93.8473 134.705 93.6142 134.433C93.381 134.123 93.1672 133.793 92.9729 133.443C93.0506 132.977 93.1089 132.589 93.1478 132.278C93.1867 131.929 93.0701 131.599 92.798 131.288C92.9535 130.784 93.0701 130.376 93.1478 130.065C93.2255 129.755 93.2255 129.347 93.1478 128.843Z" fill="#8B9DFF"/>
<path d="M132.777 128.843C133.049 128.027 133.477 127.328 134.06 126.746C134.682 126.164 135.342 125.678 136.042 125.29C136.78 124.863 137.538 124.514 138.315 124.242C139.093 123.97 139.831 123.737 140.531 123.543C142.085 122.883 143.737 122.262 145.486 121.679C147.273 121.058 149.081 120.515 150.907 120.049C152.773 119.583 154.677 119.292 156.62 119.175C158.563 119.02 160.604 119.253 162.741 119.874C162.858 120.262 163.033 120.631 163.266 120.981C163.499 121.33 163.732 121.679 163.965 122.029C164.237 122.378 164.471 122.728 164.665 123.077C164.859 123.388 164.976 123.718 165.015 124.067C165.403 124.417 165.714 124.805 165.947 125.232C166.181 125.62 166.22 126.144 166.064 126.804C165.675 127.115 165.287 127.406 164.898 127.678C164.548 127.911 164.16 128.124 163.732 128.318C162.294 127.969 160.837 127.853 159.36 127.969C157.883 128.085 156.562 128.183 155.396 128.26C155.046 127.911 154.619 127.736 154.113 127.736C153.647 127.736 153.142 127.814 152.598 127.969C152.093 128.124 151.568 128.28 151.024 128.435C150.519 128.59 150.033 128.629 149.566 128.551C149.178 128.862 148.692 129.075 148.109 129.192C147.565 129.27 146.963 129.347 146.302 129.425C146.263 129.619 146.302 129.755 146.418 129.833C146.535 129.871 146.554 129.988 146.477 130.182C146.71 130.454 147.001 130.648 147.351 130.764C147.74 130.881 148.128 130.997 148.517 131.114C148.945 131.23 149.314 131.386 149.625 131.58C149.936 131.735 150.149 132.007 150.266 132.395C150.849 132.395 151.354 132.531 151.782 132.803C152.209 133.074 152.559 133.404 152.831 133.793C153.103 134.181 153.297 134.608 153.414 135.074C153.569 135.501 153.647 135.889 153.647 136.239C153.764 136.549 153.9 136.685 154.055 136.646C154.211 136.607 154.385 136.685 154.58 136.879C154.696 137.384 154.988 137.908 155.454 138.452C155.921 138.956 156.29 139.519 156.562 140.14C156.64 141.111 156.698 141.985 156.737 142.761C156.776 143.499 156.64 144.256 156.329 145.032C155.746 146.469 154.93 147.75 153.88 148.876C152.87 150.002 151.704 151.011 150.383 151.904C149.1 152.758 147.72 153.496 146.244 154.117C144.767 154.738 143.329 155.262 141.93 155.69C141.774 155.651 141.619 155.651 141.463 155.69C141.308 155.728 141.269 155.631 141.347 155.398C141.036 155.67 140.686 155.845 140.297 155.922C139.948 156 139.559 156.02 139.131 155.981C138.704 155.981 138.257 155.961 137.791 155.922C137.363 155.884 136.955 155.903 136.566 155.981C136.294 155.709 136.042 155.437 135.809 155.165C135.614 154.932 135.459 154.622 135.342 154.234C135.148 154.234 135.051 154.137 135.051 153.942C135.09 153.748 135.031 153.651 134.876 153.651C135.109 153.263 135.206 153.049 135.167 153.011C135.167 152.933 135.109 152.875 134.992 152.836C134.915 152.797 134.837 152.758 134.759 152.719C134.682 152.642 134.662 152.545 134.701 152.428C134.856 152.118 134.915 151.768 134.876 151.38C134.837 150.953 134.798 150.526 134.759 150.099C134.72 149.672 134.74 149.264 134.818 148.876C134.934 148.488 135.226 148.177 135.692 147.944C137.013 148.099 138.257 148.061 139.423 147.828C140.628 147.556 141.755 147.187 142.804 146.721C143.853 146.255 144.844 145.751 145.777 145.207C146.749 144.663 147.701 144.178 148.634 143.751C148.75 143.402 148.906 143.11 149.1 142.878C149.333 142.645 149.566 142.431 149.8 142.237C150.033 142.043 150.247 141.829 150.441 141.596C150.635 141.363 150.771 141.072 150.849 140.723C150.888 140.451 150.81 140.296 150.616 140.257C150.46 140.179 150.383 140.024 150.383 139.791L149.741 139.616C149.003 139.189 148.167 138.84 147.235 138.568C146.302 138.257 145.505 137.927 144.844 137.578C144.417 137.811 144.009 137.869 143.62 137.753C143.27 137.636 142.804 137.52 142.221 137.403C140.9 137.326 139.617 137.19 138.374 136.996C137.169 136.802 136.003 136.452 134.876 135.947C134.798 135.753 134.701 135.579 134.584 135.423C134.468 135.268 134.254 135.229 133.943 135.307C133.71 134.996 133.477 134.705 133.244 134.433C133.01 134.123 132.797 133.793 132.602 133.443C132.68 132.977 132.738 132.589 132.777 132.278C132.816 131.929 132.699 131.599 132.427 131.288C132.583 130.784 132.699 130.376 132.777 130.065C132.855 129.755 132.855 129.347 132.777 128.843Z" fill="#8B9DFF"/>
<path d="M204.294 137.578C204.256 138.044 204.294 138.49 204.411 138.917C204.528 139.345 204.664 139.772 204.819 140.199C205.013 140.587 205.188 140.995 205.344 141.422C205.499 141.849 205.616 142.276 205.693 142.703C205.771 143.246 205.771 143.848 205.693 144.508C205.616 145.129 205.48 145.751 205.285 146.372C205.091 146.954 204.838 147.498 204.528 148.002C204.217 148.468 203.847 148.818 203.42 149.051C202.876 149.749 202.215 150.293 201.438 150.681C200.661 151.069 199.942 151.535 199.281 152.079C198.853 152.351 198.368 152.545 197.824 152.661C197.318 152.778 196.794 152.894 196.25 153.011C195.822 153.244 195.317 153.496 194.734 153.768C194.151 154.001 193.549 154.234 192.927 154.467C192.305 154.661 191.683 154.816 191.061 154.932C190.439 155.01 189.895 155.03 189.429 154.991C188.263 155.418 187.117 155.69 185.99 155.806C184.901 155.961 183.619 155.884 182.142 155.573C180.743 155.767 179.441 155.709 178.236 155.398C177.07 155.088 176.021 154.602 175.088 153.942C174.194 153.244 173.398 152.428 172.698 151.497C172.037 150.526 171.493 149.516 171.066 148.468C170.755 146.255 170.833 144.256 171.299 142.47C171.765 140.645 172.426 138.976 173.281 137.462C174.175 135.909 175.185 134.491 176.312 133.21C177.44 131.89 178.528 130.609 179.577 129.367C179.81 129.444 179.985 129.444 180.102 129.367C180.257 129.25 180.393 129.114 180.51 128.959C180.626 128.765 180.743 128.59 180.86 128.435C181.015 128.28 181.19 128.183 181.384 128.144C181.656 127.561 182.045 127.134 182.55 126.862C183.094 126.552 183.522 126.125 183.833 125.581C184.182 125.504 184.474 125.387 184.707 125.232C184.94 125.077 185.154 124.902 185.348 124.708C185.581 124.514 185.815 124.339 186.048 124.184C186.281 123.989 186.553 123.854 186.864 123.776V123.135C187.564 122.825 188.069 122.475 188.38 122.087C188.729 121.66 189.138 121.155 189.604 120.573C189.954 120.534 190.226 120.515 190.42 120.515C190.653 120.515 190.984 120.476 191.411 120.398C191.722 119.855 191.994 119.447 192.227 119.175C192.499 118.903 192.888 118.612 193.393 118.302C193.859 118.535 194.365 118.69 194.909 118.768C195.492 118.845 195.997 119.098 196.424 119.525C196.463 119.913 196.58 120.224 196.774 120.456C196.969 120.651 197.182 120.845 197.416 121.039C197.649 121.194 197.862 121.369 198.057 121.563C198.29 121.757 198.445 122.029 198.523 122.378C198.679 122.417 198.776 122.398 198.815 122.32C198.892 122.242 199.009 122.223 199.164 122.262C199.281 122.805 199.417 123.174 199.572 123.368C199.728 123.524 199.883 123.854 200.039 124.358C199.844 124.747 199.689 125.154 199.572 125.581C199.495 125.97 199.262 126.261 198.873 126.455C198.834 126.727 198.912 126.882 199.106 126.921C199.3 126.921 199.417 127.018 199.456 127.212C199.495 127.561 199.436 127.814 199.281 127.969C200.214 129.483 201.049 131.094 201.788 132.803C202.526 134.472 203.362 136.064 204.294 137.578ZM197.007 143.11C197.163 142.683 197.357 142.334 197.59 142.062C197.862 141.79 198.018 141.383 198.057 140.839C197.862 140.529 197.746 140.296 197.707 140.14C197.668 139.946 197.649 139.655 197.649 139.267C196.794 138.063 196.055 136.782 195.433 135.423C194.812 134.026 194.112 132.725 193.335 131.521C193.257 131.677 193.121 131.832 192.927 131.987C192.732 132.143 192.519 132.104 192.285 131.871C192.208 132.181 192.072 132.414 191.877 132.57C191.683 132.686 191.469 132.744 191.236 132.744C191.003 132.706 190.75 132.647 190.478 132.57C190.245 132.453 190.031 132.317 189.837 132.162C188.71 133.055 187.583 133.929 186.456 134.783C185.329 135.637 184.318 136.627 183.425 137.753C183.269 137.83 183.172 137.869 183.133 137.869C183.094 137.83 182.978 137.85 182.783 137.927C182.472 138.665 182.084 139.345 181.617 139.966C181.19 140.548 180.762 141.15 180.335 141.771C179.907 142.392 179.538 143.052 179.227 143.751C178.916 144.45 178.741 145.265 178.703 146.197C179.363 146.741 180.141 147.071 181.034 147.187C181.928 147.303 182.842 147.323 183.774 147.245C184.746 147.168 185.679 147.051 186.572 146.896C187.505 146.702 188.36 146.605 189.138 146.605C190.77 146.216 192.169 145.712 193.335 145.091C194.501 144.43 195.725 143.77 197.007 143.11Z" fill="#8B9DFF"/>
<path d="M231.74 144.45C231.39 144.528 231.138 144.741 230.982 145.091C230.827 145.401 230.671 145.731 230.516 146.081C230.399 146.43 230.263 146.76 230.108 147.071C229.991 147.342 229.797 147.478 229.525 147.478C229.486 147.789 229.369 148.061 229.175 148.294C229.02 148.526 228.864 148.779 228.709 149.051C228.553 149.284 228.437 149.555 228.359 149.866C228.281 150.138 228.32 150.468 228.475 150.856C228.165 151.089 227.97 151.419 227.892 151.846C227.815 152.273 227.718 152.681 227.601 153.069C227.523 153.457 227.368 153.787 227.135 154.059C226.901 154.331 226.474 154.447 225.852 154.408C225.736 154.564 225.716 154.661 225.794 154.7C225.872 154.738 225.93 154.874 225.969 155.107C225.541 155.03 225.211 155.049 224.978 155.165C224.783 155.321 224.531 155.418 224.22 155.457C223.481 155.224 222.86 154.816 222.354 154.234C221.888 153.651 221.461 153.011 221.072 152.312C220.722 151.574 220.392 150.837 220.081 150.099C219.809 149.361 219.537 148.721 219.265 148.177C219.381 147.75 219.401 147.342 219.323 146.954C219.245 146.527 219.109 146.178 218.915 145.906C220.819 141.868 222.898 137.559 225.153 132.977C227.407 128.396 229.544 123.873 231.565 119.408C232.459 119.758 233.333 120.165 234.188 120.631C235.082 121.058 235.879 121.563 236.579 122.145C237.317 122.728 237.939 123.407 238.444 124.184C238.949 124.921 239.28 125.756 239.435 126.688C239.357 126.921 239.26 127.018 239.144 126.979C239.066 126.901 238.988 126.921 238.91 127.037C239.066 127.231 239.144 127.367 239.144 127.445C239.182 127.522 239.182 127.6 239.144 127.678C239.144 127.755 239.144 127.872 239.144 128.027C239.144 128.144 239.202 128.318 239.318 128.551C239.163 128.513 239.046 128.532 238.969 128.61C238.93 128.687 238.813 128.687 238.619 128.61C238.774 129.037 238.813 129.386 238.735 129.658C238.697 129.93 238.619 130.182 238.502 130.415C238.386 130.609 238.289 130.842 238.211 131.114C238.133 131.347 238.153 131.657 238.269 132.046C238.153 132.046 238.055 132.084 237.978 132.162C237.939 132.201 237.9 132.259 237.861 132.337C237.822 132.376 237.764 132.434 237.686 132.511C237.647 132.55 237.57 132.55 237.453 132.511C237.57 133.366 237.608 134.22 237.57 135.074C237.531 135.928 237.492 136.802 237.453 137.694C237.453 138.549 237.472 139.461 237.511 140.432C237.55 141.363 237.686 142.334 237.919 143.343C239.318 142.528 240.426 141.48 241.242 140.199C242.097 138.917 242.777 137.481 243.283 135.889C243.827 134.297 244.235 132.589 244.507 130.764C244.779 128.94 245.07 127.076 245.381 125.174C245.731 124.824 246.003 124.397 246.197 123.892C246.392 123.388 246.567 122.864 246.722 122.32C246.877 121.738 247.033 121.175 247.188 120.631C247.344 120.049 247.538 119.525 247.771 119.059C248.354 119.136 248.84 119.331 249.229 119.641C249.656 119.913 250.045 120.224 250.395 120.573C250.744 120.884 251.114 121.194 251.502 121.505C251.891 121.776 252.377 121.951 252.96 122.029C253.426 122.689 253.854 123.329 254.242 123.951C254.631 124.572 254.883 125.232 255 125.931C254.806 126.241 254.65 126.591 254.534 126.979C254.456 127.367 254.359 127.755 254.242 128.144C254.126 128.532 253.97 128.901 253.776 129.25C253.581 129.561 253.309 129.833 252.96 130.065C252.843 131.075 252.688 132.007 252.493 132.861C252.338 133.676 252.163 134.491 251.969 135.307C251.813 136.122 251.677 136.976 251.561 137.869C251.444 138.723 251.405 139.675 251.444 140.723C251.133 141.616 250.803 142.567 250.453 143.576C250.103 144.586 249.831 145.498 249.637 146.313C249.015 146.818 248.529 147.42 248.179 148.119C247.83 148.818 247.46 149.516 247.072 150.215C246.916 150.371 246.819 150.409 246.78 150.332C246.741 150.254 246.605 150.196 246.372 150.157C246.411 150.312 246.411 150.429 246.372 150.506C246.333 150.584 246.275 150.662 246.197 150.739C246.158 150.778 246.12 150.856 246.081 150.972C246.081 151.089 246.12 151.244 246.197 151.438C245.653 151.671 245.167 152.001 244.74 152.428C244.312 152.855 243.846 153.244 243.341 153.593C242.874 153.942 242.292 154.175 241.592 154.292C240.931 154.408 240.057 154.272 238.969 153.884C237.375 152.719 235.957 151.38 234.713 149.866C233.508 148.352 232.517 146.546 231.74 144.45Z" fill="#8B9DFF"/>
<path d="M219.828 38.2004L215.237 40.473M133.724 44.0983L138.626 45.7516L133.724 44.0983ZM192.76 14.8798L191.103 19.7796L192.76 14.8798ZM217.068 72.2045L221.971 73.8578L217.068 72.2045ZM157.075 17.0381L159.347 21.6253L157.075 17.0381Z" stroke="#FFC700" stroke-width="2" stroke-linecap="round" stroke-linejoin="round"/>
<path d="M156.522 73.6064C153.449 69.134 151.864 63.8084 151.989 58.3839C152.115 52.9595 153.946 47.7112 157.222 43.3826C160.498 39.0539 165.053 35.8643 170.243 34.2655C175.433 32.6667 180.993 32.7399 186.138 34.4746C191.282 36.2093 195.748 39.5176 198.905 43.9309C202.062 48.3442 203.748 53.6388 203.725 59.0646C203.703 64.4904 201.972 69.7723 198.779 74.1623C195.586 78.5523 191.092 81.8277 185.933 83.5246C183.379 84.7725 181.154 86.6036 179.439 88.8697C177.724 91.1358 176.567 93.7732 176.061 96.5685C175.182 99.1671 173.307 101.311 170.847 102.528C168.387 103.746 165.544 103.937 162.944 103.06C160.344 102.184 158.199 100.31 156.982 97.8529C155.765 95.3954 155.575 92.555 156.453 89.9564C157.748 87.427 158.429 84.629 158.441 81.7886C158.453 78.9481 157.795 76.1452 156.522 73.6064" stroke="#FFC700" stroke-width="2" stroke-linecap="round" stroke-linejoin="round"/>
<path d="M158.296 79.6572L180.851 87.2661" stroke="#FFC700" stroke-width="2" stroke-linecap="round" stroke-linejoin="round"/>
</svg>
