<svg width="86" height="53" viewBox="0 0 86 53" fill="none" xmlns="http://www.w3.org/2000/svg">
<path d="M0.90332 33.3359C0.799154 33.2318 0.721029 33.1081 0.668945 32.9648C0.629883 32.8216 0.525716 32.7044 0.356445 32.6133C0.330404 32.418 0.291341 32.1966 0.239258 31.9492C0.200195 31.6888 0.154622 31.4284 0.102539 31.168C0.0634766 30.8945 0.0309245 30.6276 0.00488281 30.3672C-0.00813802 30.0938 0.00488281 29.8464 0.0439453 29.625C0.069987 29.5078 0.109049 29.3971 0.161133 29.293C0.226237 29.1888 0.284831 29.0911 0.336914 29C0.402018 28.8958 0.447591 28.7917 0.473633 28.6875C0.512695 28.5833 0.519206 28.4792 0.493164 28.375C0.571289 28.362 0.616862 28.3229 0.629883 28.2578C0.655924 28.1797 0.721029 28.1536 0.825195 28.1797C0.916341 27.8932 1.014 27.6263 1.11816 27.3789C1.22233 27.1315 1.33301 26.8906 1.4502 26.6562C1.56738 26.4219 1.68457 26.1875 1.80176 25.9531C1.93197 25.7057 2.04915 25.4323 2.15332 25.1328C1.93197 24.9245 1.76921 24.7031 1.66504 24.4688C1.57389 24.2214 1.50228 23.974 1.4502 23.7266C1.39811 23.4792 1.35905 23.2318 1.33301 22.9844C1.30697 22.724 1.25488 22.4635 1.17676 22.2031C1.33301 21.9688 1.52181 21.7799 1.74316 21.6367C1.96452 21.4805 2.2054 21.3568 2.46582 21.2656C2.73926 21.1615 3.03223 21.0833 3.34473 21.0312C3.65723 20.9661 3.98926 20.8945 4.34082 20.8164C4.96582 20.6211 5.52572 20.4714 6.02051 20.3672C6.5153 20.25 6.99707 20.1589 7.46582 20.0938C7.93457 20.0156 8.42285 19.9505 8.93066 19.8984C9.43848 19.8333 10.0244 19.7422 10.6885 19.625C10.7015 19.6641 10.721 19.6836 10.7471 19.6836C10.7861 19.6836 10.8317 19.6836 10.8838 19.6836C10.9229 19.7747 10.9945 19.8203 11.0986 19.8203C11.0986 19.7812 11.0921 19.7487 11.0791 19.7227C11.0791 19.6836 11.0791 19.651 11.0791 19.625C11.1051 19.625 11.1377 19.6315 11.1768 19.6445C11.2288 19.6576 11.2679 19.6706 11.2939 19.6836C11.333 19.6966 11.3656 19.6966 11.3916 19.6836C11.4176 19.6576 11.4242 19.612 11.4111 19.5469C11.5674 19.8203 11.7692 20.0482 12.0166 20.2305C12.264 20.3997 12.5374 20.5495 12.8369 20.6797C12.8499 20.7969 12.8499 20.8815 12.8369 20.9336C12.8369 20.9857 12.8304 21.0378 12.8174 21.0898C12.8044 21.1289 12.7979 21.181 12.7979 21.2461C12.7979 21.2982 12.8109 21.3763 12.8369 21.4805C12.6286 21.832 12.3877 22.1055 12.1143 22.3008C11.8538 22.4961 11.5739 22.6458 11.2744 22.75C10.9749 22.8542 10.6559 22.9323 10.3174 22.9844C9.99186 23.0365 9.65332 23.0951 9.30176 23.1602C8.96322 23.2122 8.61816 23.2904 8.2666 23.3945C7.91504 23.4987 7.56999 23.6549 7.23145 23.8633C7.12728 23.8242 7.02962 23.8112 6.93848 23.8242C6.86035 23.8242 6.77572 23.8372 6.68457 23.8633C6.59342 23.8893 6.48926 23.9154 6.37207 23.9414C6.2679 23.9674 6.1377 23.9674 5.98145 23.9414C5.87728 24.0326 5.75358 24.0977 5.61035 24.1367C5.48014 24.1758 5.34342 24.2148 5.2002 24.2539C5.2653 24.3971 5.29134 24.5404 5.27832 24.6836C5.27832 24.8268 5.29785 24.9505 5.33691 25.0547C5.88379 25.1068 6.48926 25.1068 7.15332 25.0547C7.81738 24.9896 8.46842 24.944 9.10645 24.918C9.11947 24.9831 9.11296 25.0286 9.08691 25.0547C9.06087 25.0807 9.04785 25.1263 9.04785 25.1914C9.16504 25.2695 9.27572 25.3672 9.37988 25.4844C9.48405 25.6016 9.58822 25.7188 9.69238 25.8359C9.80957 25.9401 9.92676 26.0312 10.0439 26.1094C10.1611 26.1745 10.2979 26.2005 10.4541 26.1875C10.5192 26.3177 10.5648 26.4544 10.5908 26.5977C10.6169 26.7409 10.5973 26.8906 10.5322 27.0469C10.2718 27.2161 10.0179 27.3919 9.77051 27.5742C9.52311 27.7435 9.2627 27.8997 8.98926 28.043C8.72884 28.1862 8.44238 28.3034 8.12988 28.3945C7.81738 28.4857 7.47884 28.5247 7.11426 28.5117C7.04915 28.5117 6.99056 28.5117 6.93848 28.5117C6.89941 28.5117 6.84733 28.4857 6.78223 28.4336C6.65202 28.4987 6.47624 28.5247 6.25488 28.5117C6.04655 28.4857 5.87077 28.5052 5.72754 28.5703C5.54525 28.5052 5.3304 28.4727 5.08301 28.4727C4.84863 28.4727 4.6403 28.4401 4.45801 28.375C4.22363 28.7135 4.00228 29.0716 3.79395 29.4492C3.58561 29.8138 3.40332 30.2044 3.24707 30.6211C3.78092 30.6992 4.22363 30.7318 4.5752 30.7188C4.92676 30.7057 5.25879 30.6797 5.57129 30.6406C5.88379 30.6016 6.2028 30.5625 6.52832 30.5234C6.86686 30.4844 7.27702 30.4714 7.75879 30.4844C8.08431 30.3281 8.4554 30.224 8.87207 30.1719C9.30176 30.1068 9.69889 30.0156 10.0635 29.8984C10.1937 29.9375 10.3044 30.0156 10.3955 30.1328C10.4867 30.237 10.5713 30.3477 10.6494 30.4648C10.7406 30.569 10.8317 30.6602 10.9229 30.7383C11.014 30.8164 11.1312 30.8424 11.2744 30.8164C11.3395 30.8815 11.3786 30.9596 11.3916 31.0508C11.4176 31.1419 11.4372 31.2266 11.4502 31.3047C11.4762 31.3828 11.5088 31.4479 11.5479 31.5C11.5869 31.5391 11.6585 31.5521 11.7627 31.5391C11.5153 32.0469 11.2354 32.4375 10.9229 32.7109C10.6234 32.9844 10.2783 33.1992 9.8877 33.3555C9.51009 33.4987 9.0804 33.6094 8.59863 33.6875C8.12988 33.7526 7.60254 33.8372 7.0166 33.9414C6.87337 33.9674 6.74967 33.9674 6.64551 33.9414C6.55436 33.9023 6.45671 33.8828 6.35254 33.8828C5.98796 33.9479 5.55176 34.013 5.04395 34.0781C4.54915 34.1432 4.04785 34.1693 3.54004 34.1562C3.03223 34.1432 2.54395 34.0781 2.0752 33.9609C1.60645 33.8438 1.21582 33.6354 0.90332 33.3359Z" fill="#8B9DFF"/>
<path d="M22.6807 32.3594C22.6025 32.5807 22.4854 32.8086 22.3291 33.043C22.1859 33.2643 22.0101 33.4661 21.8018 33.6484C21.6064 33.8177 21.3851 33.9609 21.1377 34.0781C20.8903 34.1953 20.6299 34.2604 20.3564 34.2734C20.1872 34.2344 20.07 34.1888 20.0049 34.1367C19.9528 34.0977 19.8942 34.0586 19.8291 34.0195C19.79 33.9935 19.751 33.974 19.7119 33.9609C19.6859 33.9349 19.6598 33.9154 19.6338 33.9023L19.3994 33.8047L19.4775 33.5508C19.5036 33.4466 19.4971 33.3685 19.458 33.3164C19.4189 33.2513 19.3408 33.1667 19.2236 33.0625C19.1846 33.0234 19.1455 32.9844 19.1064 32.9453C19.0674 32.9062 19.0348 32.8672 19.0088 32.8281L18.6768 32.457L19.2041 32.3203C19.5296 32.2292 19.7445 32.112 19.8486 31.9688C19.9658 31.8255 20.0114 31.5846 19.9854 31.2461C19.7249 31.194 19.5036 31.1875 19.3213 31.2266C19.152 31.2656 18.9762 31.3112 18.7939 31.3633C18.5596 31.4284 18.3187 31.487 18.0713 31.5391C17.8369 31.5781 17.5765 31.5977 17.29 31.5977C17.1859 31.5977 17.0882 31.5977 16.9971 31.5977C16.9059 31.5846 16.8083 31.5716 16.7041 31.5586L16.5088 31.5195C16.4827 31.3763 16.4567 31.2982 16.4307 31.2852C16.4046 31.2591 16.3786 31.2331 16.3525 31.207C16.2874 31.1419 16.2158 31.0573 16.1377 30.9531C16.0726 30.8359 16.0596 30.6927 16.0986 30.5234C16.0335 30.4062 15.9945 30.2891 15.9814 30.1719C15.9033 30.3281 15.8447 30.4909 15.8057 30.6602L15.7275 30.8555L15.5322 30.8945C15.5062 30.9076 15.4867 30.9401 15.4736 30.9922C15.4606 31.0312 15.4541 31.0638 15.4541 31.0898L15.3564 31.4219C15.3304 31.4479 15.3044 31.474 15.2783 31.5C15.2523 31.513 15.2262 31.5326 15.2002 31.5586C15.1742 31.6758 15.1416 31.793 15.1025 31.9102C15.0635 32.0273 15.0244 32.138 14.9854 32.2422C14.9202 32.4115 14.8617 32.5807 14.8096 32.75C14.7705 32.9062 14.7575 33.0625 14.7705 33.2188L14.6924 33.4336C14.6273 33.5117 14.5557 33.5768 14.4775 33.6289C14.3994 33.668 14.3213 33.707 14.2432 33.7461C14.2171 33.7721 14.1781 33.7982 14.126 33.8242C14.0869 33.8372 14.0544 33.8503 14.0283 33.8633L13.9697 34.0781L13.7354 34.1172C13.5921 34.1432 13.488 34.1628 13.4229 34.1758C13.3708 34.1888 13.3057 34.1953 13.2275 34.1953L13.0322 34.1758C12.889 34.0586 12.7783 33.9674 12.7002 33.9023C12.6221 33.8242 12.5309 33.7526 12.4268 33.6875C12.3096 33.5312 12.2445 33.4141 12.2314 33.3359C12.2184 33.2578 12.2054 33.1862 12.1924 33.1211C12.1663 33.043 12.1533 32.9779 12.1533 32.9258C12.1403 32.8737 12.1208 32.8346 12.0947 32.8086L11.8408 32.5742L12.0557 32.3984L12.0752 32.0664C12.3356 31.4023 12.609 30.7643 12.8955 30.1523C13.195 29.5404 13.501 28.9154 13.8135 28.2773C13.9176 28.069 14.0153 27.8607 14.1064 27.6523C14.2106 27.444 14.3148 27.2357 14.4189 27.0273C14.4059 26.9883 14.3994 26.9427 14.3994 26.8906C14.3994 26.8385 14.4124 26.7799 14.4385 26.7148C14.5817 26.4935 14.6989 26.2982 14.79 26.1289C14.8812 25.9466 14.9723 25.7643 15.0635 25.582C15.1676 25.3607 15.2718 25.1458 15.376 24.9375C15.4932 24.7292 15.6364 24.5143 15.8057 24.293L16.1182 24.1562C16.1572 24.1432 16.2028 24.1302 16.2549 24.1172C16.307 24.0911 16.3656 24.0781 16.4307 24.0781L16.7236 24.1172C17.0882 23.9479 17.4072 23.7135 17.6807 23.4141C17.9541 23.1016 18.234 22.7305 18.5205 22.3008L18.7158 22.0273L18.9697 22.1836C19.0348 22.2227 19.126 22.2617 19.2432 22.3008C19.3604 22.3268 19.484 22.3594 19.6143 22.3984C19.8486 22.4505 20.07 22.5091 20.2783 22.5742C20.4867 22.6393 20.6559 22.737 20.7861 22.8672C20.8643 23.0755 20.9098 23.2318 20.9229 23.3359C20.9359 23.4401 20.9554 23.5443 20.9814 23.6484C21.0205 23.8698 21.0531 24.0911 21.0791 24.3125C21.1182 24.5339 21.1442 24.7812 21.1572 25.0547C21.2223 25.276 21.2744 25.4974 21.3135 25.7188C21.3656 25.9271 21.4111 26.1419 21.4502 26.3633C21.5153 26.6758 21.5804 26.9818 21.6455 27.2812C21.7106 27.5677 21.7952 27.8411 21.8994 28.1016C22.0036 28.1016 22.0687 28.1081 22.0947 28.1211C22.1598 28.0951 22.2249 28.0755 22.29 28.0625C22.3682 28.0495 22.4528 28.0365 22.5439 28.0234L22.7588 28.0039L22.8369 28.1992C22.8499 28.2643 22.915 28.3294 23.0322 28.3945C23.2015 28.4076 23.3252 28.4466 23.4033 28.5117C23.4814 28.5638 23.5531 28.6224 23.6182 28.6875C23.6702 28.7396 23.7223 28.7786 23.7744 28.8047L24.0674 28.9219L23.9111 29.2148C23.7809 29.4492 23.5921 29.6771 23.3447 29.8984C23.1104 30.1068 22.8434 30.2826 22.5439 30.4258C22.557 30.5039 22.5635 30.582 22.5635 30.6602C22.5765 30.7253 22.596 30.7969 22.6221 30.875C22.6611 31.0964 22.6937 31.3242 22.7197 31.5586C22.7458 31.793 22.7458 32.0339 22.7197 32.2812L22.6807 32.3594ZM17.0361 28.9805C17.4268 28.9544 17.7783 28.9284 18.0908 28.9023C18.4163 28.8633 18.7744 28.8047 19.165 28.7266C19.0739 28.3359 18.9762 27.9323 18.8721 27.5156C18.7679 27.0859 18.6572 26.6628 18.54 26.2461L18.4229 26.4414C18.1624 26.7148 17.9085 27.0208 17.6611 27.3594C17.4268 27.6979 17.2249 28.0169 17.0557 28.3164C16.9775 28.4336 16.8994 28.5508 16.8213 28.668C16.7432 28.7852 16.6715 28.9023 16.6064 29.0195C16.6846 29.0065 16.7562 29 16.8213 29C16.8994 29 16.971 28.9935 17.0361 28.9805Z" fill="#8B9DFF"/>
<path d="M23.8916 25.2109C23.9827 24.9375 24.126 24.7031 24.3213 24.5078C24.5296 24.3125 24.751 24.1497 24.9854 24.0195C25.2327 23.8763 25.4867 23.7591 25.7471 23.668C26.0075 23.5768 26.2549 23.4987 26.4893 23.4336C27.0101 23.2122 27.5635 23.0039 28.1494 22.8086C28.7484 22.6003 29.3538 22.418 29.9658 22.2617C30.5908 22.1055 31.2288 22.0078 31.8799 21.9688C32.5309 21.9167 33.2145 21.9948 33.9307 22.2031C33.9697 22.3333 34.0283 22.457 34.1064 22.5742C34.1846 22.6914 34.2627 22.8086 34.3408 22.9258C34.432 23.043 34.5101 23.1602 34.5752 23.2773C34.6403 23.3815 34.6794 23.4922 34.6924 23.6094C34.8226 23.7266 34.9268 23.8568 35.0049 24C35.083 24.1302 35.096 24.306 35.0439 24.5273C34.9137 24.6315 34.7835 24.7292 34.6533 24.8203C34.5361 24.8984 34.4059 24.9701 34.2627 25.0352C33.7809 24.918 33.2926 24.8789 32.7979 24.918C32.3031 24.957 31.8604 24.9896 31.4697 25.0156C31.3525 24.8984 31.2093 24.8398 31.04 24.8398C30.8838 24.8398 30.7145 24.8659 30.5322 24.918C30.363 24.9701 30.1872 25.0221 30.0049 25.0742C29.8356 25.1263 29.6729 25.1393 29.5166 25.1133C29.3864 25.2174 29.2236 25.2891 29.0283 25.3281C28.846 25.3542 28.6442 25.3802 28.4229 25.4062C28.4098 25.4714 28.4229 25.5169 28.4619 25.543C28.501 25.556 28.5075 25.5951 28.4814 25.6602C28.5596 25.7513 28.6572 25.8164 28.7744 25.8555C28.9046 25.8945 29.0348 25.9336 29.165 25.9727C29.3083 26.0117 29.432 26.0638 29.5361 26.1289C29.6403 26.181 29.7119 26.2721 29.751 26.4023C29.9463 26.4023 30.1156 26.4479 30.2588 26.5391C30.402 26.6302 30.5192 26.7409 30.6104 26.8711C30.7015 27.0013 30.7666 27.1445 30.8057 27.3008C30.8577 27.444 30.8838 27.5742 30.8838 27.6914C30.9229 27.7956 30.9684 27.8411 31.0205 27.8281C31.0726 27.8151 31.1312 27.8411 31.1963 27.9062C31.2354 28.0755 31.333 28.2513 31.4893 28.4336C31.6455 28.6029 31.7692 28.7917 31.8604 29C31.8864 29.3255 31.9059 29.6185 31.9189 29.8789C31.932 30.1263 31.8864 30.3802 31.7822 30.6406C31.5869 31.1224 31.3135 31.5521 30.9619 31.9297C30.6234 32.3073 30.2327 32.6458 29.79 32.9453C29.3604 33.2318 28.8981 33.4792 28.4033 33.6875C27.9085 33.8958 27.4268 34.0716 26.958 34.2148C26.9059 34.2018 26.8538 34.2018 26.8018 34.2148C26.7497 34.2279 26.7367 34.1953 26.7627 34.1172C26.6585 34.2083 26.5413 34.2669 26.4111 34.293C26.2939 34.319 26.1637 34.3255 26.0205 34.3125C25.8773 34.3125 25.7275 34.306 25.5713 34.293C25.4281 34.2799 25.2913 34.2865 25.1611 34.3125C25.07 34.2214 24.9854 34.1302 24.9072 34.0391C24.8421 33.9609 24.79 33.8568 24.751 33.7266C24.6859 33.7266 24.6533 33.694 24.6533 33.6289C24.6663 33.5638 24.6468 33.5312 24.5947 33.5312C24.6729 33.401 24.7054 33.3294 24.6924 33.3164C24.6924 33.2904 24.6729 33.2708 24.6338 33.2578C24.6077 33.2448 24.5817 33.2318 24.5557 33.2188C24.5296 33.1927 24.5231 33.1602 24.5361 33.1211C24.5882 33.0169 24.6077 32.8997 24.5947 32.7695C24.5817 32.6263 24.5687 32.4831 24.5557 32.3398C24.5426 32.1966 24.5492 32.0599 24.5752 31.9297C24.6143 31.7995 24.7119 31.6953 24.8682 31.6172C25.3109 31.6693 25.7275 31.6562 26.1182 31.5781C26.5218 31.487 26.8994 31.3633 27.251 31.207C27.6025 31.0508 27.9346 30.8815 28.2471 30.6992C28.5726 30.5169 28.8916 30.3542 29.2041 30.2109C29.2432 30.0938 29.2952 29.9961 29.3604 29.918C29.4385 29.8398 29.5166 29.7682 29.5947 29.7031C29.6729 29.638 29.7445 29.5664 29.8096 29.4883C29.8747 29.4102 29.9202 29.3125 29.9463 29.1953C29.9593 29.1042 29.9333 29.0521 29.8682 29.0391C29.8161 29.013 29.79 28.9609 29.79 28.8828L29.5752 28.8242C29.3278 28.681 29.0479 28.5638 28.7354 28.4727C28.4229 28.3685 28.1559 28.2578 27.9346 28.1406C27.7913 28.2188 27.6546 28.2383 27.5244 28.1992C27.4072 28.1602 27.251 28.1211 27.0557 28.082C26.613 28.056 26.1833 28.0104 25.7666 27.9453C25.363 27.8802 24.9723 27.763 24.5947 27.5938C24.5687 27.5286 24.5361 27.4701 24.4971 27.418C24.458 27.3659 24.3864 27.3529 24.2822 27.3789C24.2041 27.2747 24.126 27.1771 24.0479 27.0859C23.9697 26.9818 23.8981 26.8711 23.833 26.7539C23.859 26.5977 23.8786 26.4674 23.8916 26.3633C23.9046 26.2461 23.8656 26.1354 23.7744 26.0312C23.8265 25.862 23.8656 25.7253 23.8916 25.6211C23.9176 25.5169 23.9176 25.3802 23.8916 25.2109Z" fill="#8B9DFF"/>
<path d="M39.1064 28.8828C39.0153 28.9609 38.9372 29.0586 38.8721 29.1758C38.807 29.2799 38.7419 29.3906 38.6768 29.5078C38.6117 29.651 38.54 29.7878 38.4619 29.918C38.3838 30.0482 38.2861 30.1654 38.1689 30.2695C38.1038 30.4648 38.0387 30.6211 37.9736 30.7383C37.9085 30.8424 37.8044 30.9661 37.6611 31.1094C37.5309 31.6302 37.2249 32.1966 36.7432 32.8086C36.7301 32.9258 36.6911 33.043 36.626 33.1602C36.5739 33.2643 36.5153 33.3685 36.4502 33.4727C36.4242 33.5117 36.3981 33.5573 36.3721 33.6094C36.346 33.6484 36.3265 33.681 36.3135 33.707L36.2744 33.9023C36.2093 34.0065 36.1377 34.0977 36.0596 34.1758C35.9814 34.2539 35.9098 34.3255 35.8447 34.3906C35.8187 34.4297 35.7731 34.4818 35.708 34.5469L35.415 34.6641C34.4645 34.5339 33.8851 34.026 33.6768 33.1406L33.6963 32.9453C33.7223 32.8802 33.7419 32.8151 33.7549 32.75C33.7809 32.6719 33.807 32.5938 33.833 32.5156C33.8851 32.3333 33.9437 32.151 34.0088 31.9688C34.0869 31.7865 34.1976 31.6237 34.3408 31.4805C34.3669 31.3893 34.4255 31.2461 34.5166 31.0508C34.6077 30.8424 34.764 30.5365 34.9854 30.1328C35.1676 29.8203 35.3109 29.5729 35.415 29.3906C35.5192 29.2083 35.6038 29.0651 35.6689 28.9609C35.5387 28.7526 35.3825 28.5638 35.2002 28.3945C35.0309 28.069 34.8812 27.7565 34.751 27.457C34.6338 27.1576 34.5426 26.8906 34.4775 26.6562C34.4645 26.487 34.445 26.3438 34.4189 26.2266C34.3929 26.1094 34.3669 25.9857 34.3408 25.8555C34.3018 25.7122 34.2692 25.569 34.2432 25.4258C34.2171 25.2826 34.2041 25.1328 34.2041 24.9766C34.139 24.8854 34.0999 24.7943 34.0869 24.7031L34.126 24.5078C34.165 24.4167 34.1716 24.2995 34.1455 24.1562C34.1195 24 34.0869 23.8438 34.0479 23.6875C34.0218 23.5573 33.9893 23.4141 33.9502 23.2578C33.9242 23.1016 33.9176 22.9453 33.9307 22.7891C33.9437 22.6328 33.9827 22.4896 34.0479 22.3594C34.126 22.2161 34.2497 22.0924 34.4189 21.9883L34.751 21.9688C34.8682 22.0339 34.9788 22.099 35.083 22.1641C35.2002 22.2161 35.3109 22.2747 35.415 22.3398C35.5583 22.4049 35.695 22.4701 35.8252 22.5352C35.9554 22.6003 36.0921 22.6849 36.2354 22.7891L36.3721 23.0625L36.626 23.2773V23.4922C36.639 23.5443 36.6455 23.6159 36.6455 23.707C36.6455 23.8763 36.6716 23.9805 36.7236 24.0195L36.8018 24.2539C36.8018 24.4362 36.8213 24.612 36.8604 24.7812C36.8994 24.9375 36.9385 25.0872 36.9775 25.2305C37.0166 25.3737 37.0557 25.5234 37.0947 25.6797C37.1338 25.8359 37.1403 26.0052 37.1143 26.1875C37.1924 26.1484 37.2575 26.1029 37.3096 26.0508C37.3356 26.0247 37.3617 26.0052 37.3877 25.9922C37.4137 25.9792 37.4398 25.9596 37.4658 25.9336L38.6182 24.3711L38.5791 24.1758L38.9893 23.7852C39.0934 23.681 39.1911 23.5833 39.2822 23.4922C39.3864 23.401 39.471 23.3034 39.5361 23.1992L39.751 23.043C40.1676 22.3919 40.7601 21.9883 41.5283 21.832L41.8018 21.793L41.8799 22.0469C41.932 22.1901 42.0361 22.3203 42.1924 22.4375C42.3617 22.5547 42.5374 22.6654 42.7197 22.7695L42.8955 22.8867C42.9606 23.0169 42.9932 23.1146 42.9932 23.1797C42.9932 23.2448 42.9867 23.3034 42.9736 23.3555L43.0518 23.5508C42.9476 23.8633 42.8174 24.0911 42.6611 24.2344C42.5179 24.3776 42.3747 24.5078 42.2314 24.625C42.1143 24.7292 42.0036 24.8268 41.8994 24.918C41.8083 24.9961 41.7367 25.1003 41.6846 25.2305L41.5479 25.3867C41.2744 25.543 41.0986 25.7513 41.0205 26.0117L40.9619 26.2461H40.7275C40.7145 26.2461 40.682 26.2721 40.6299 26.3242C40.5908 26.3633 40.5257 26.474 40.4346 26.6562C40.3434 26.7865 40.2783 26.8711 40.2393 26.9102C40.2002 26.9492 40.1676 26.9818 40.1416 27.0078C40.1286 27.0599 40.1091 27.112 40.083 27.1641C40.07 27.2031 40.0505 27.2552 40.0244 27.3203C39.8551 27.4896 39.751 27.6198 39.7119 27.7109C39.6729 27.7891 39.6273 27.8802 39.5752 27.9844C39.5231 28.0885 39.471 28.1927 39.4189 28.2969C39.3799 28.388 39.3083 28.4857 39.2041 28.5898L39.1064 28.8828Z" fill="#8B9DFF"/>
<path d="M0.922852 51.2773C0.870768 51.2253 0.825195 51.1667 0.786133 51.1016C0.74707 51.0234 0.714518 50.9258 0.688477 50.8086C0.506185 50.5872 0.362956 50.3333 0.258789 50.0469C0.154622 49.7604 0.0830078 49.4674 0.0439453 49.168C0.00488281 48.8555 -0.0016276 48.543 0.0244141 48.2305C0.0504557 47.918 0.0960286 47.625 0.161133 47.3516C0.200195 47.2214 0.232747 47.0846 0.258789 46.9414C0.323893 46.694 0.388997 46.4531 0.454102 46.2188C0.519206 45.9714 0.616862 45.7695 0.74707 45.6133C0.694987 45.4701 0.701497 45.3138 0.766602 45.1445C0.831706 44.9753 0.89681 44.819 0.961914 44.6758C0.987956 44.6367 1.00749 44.6042 1.02051 44.5781C1.03353 44.5391 1.04655 44.5065 1.05957 44.4805C1.21582 44.0247 1.36556 43.5885 1.50879 43.1719C1.66504 42.7422 1.81478 42.332 1.95801 41.9414C2.21842 41.2253 2.46582 40.5221 2.7002 39.832C2.94759 39.1419 3.16895 38.4062 3.36426 37.625C3.46842 37.5469 3.55957 37.4948 3.6377 37.4688C3.66374 37.4557 3.69629 37.4427 3.73535 37.4297C3.77441 37.4167 3.81999 37.4102 3.87207 37.4102C4.14551 37.5534 4.46452 37.6901 4.8291 37.8203C5.20671 37.9375 5.52572 37.9961 5.78613 37.9961L6.11816 38.2891C6.28744 38.4844 6.43066 38.6927 6.54785 38.9141C6.67806 39.1224 6.71712 39.3958 6.66504 39.7344C6.58691 39.8516 6.52181 39.9232 6.46973 39.9492C6.3916 40.2487 6.30697 40.5156 6.21582 40.75C6.12467 40.9714 6.03353 41.1862 5.94238 41.3945C5.83822 41.6289 5.74056 41.8633 5.64941 42.0977C5.55827 42.332 5.48014 42.6185 5.41504 42.957C5.33691 43.0482 5.28483 43.1263 5.25879 43.1914C5.24577 43.2565 5.22624 43.3216 5.2002 43.3867C5.17415 43.4648 5.1416 43.5495 5.10254 43.6406C5.06348 43.7188 5.00488 43.7904 4.92676 43.8555C4.87467 44.2591 4.79655 44.5911 4.69238 44.8516C4.58822 45.099 4.48405 45.3464 4.37988 45.5938C4.19759 46.0495 4.02832 46.5052 3.87207 46.9609C3.71582 47.4036 3.62467 47.9115 3.59863 48.4844C3.75488 48.4453 3.89811 48.4258 4.02832 48.4258C4.19759 48.4258 4.36035 48.4518 4.5166 48.5039C4.98535 48.2695 5.49316 48.1263 6.04004 48.0742C6.59994 48.0221 7.15332 47.9896 7.7002 47.9766C8.15592 47.9766 8.5791 47.957 8.96973 47.918C9.09993 48.0091 9.18457 48.0612 9.22363 48.0742C9.2627 48.0742 9.3278 48.0742 9.41895 48.0742C9.45801 48.0742 9.49707 48.0742 9.53613 48.0742C9.5752 48.0742 9.62728 48.0807 9.69238 48.0938C9.87467 48.276 10.0505 48.4062 10.2197 48.4844C10.389 48.5495 10.5713 48.6146 10.7666 48.6797C10.9359 48.7448 11.0986 48.8164 11.2549 48.8945C11.4242 48.9596 11.5869 49.0508 11.7432 49.168L11.9189 50.1641C12.0231 50.3073 12.0687 50.4049 12.0557 50.457C12.0557 50.5612 12.0296 50.6523 11.9775 50.7305L12.0166 50.9844C11.7692 51.0365 11.6064 51.0951 11.5283 51.1602C11.4502 51.2122 11.3656 51.2839 11.2744 51.375C11.1312 51.388 10.9945 51.3945 10.8643 51.3945C10.6038 51.3945 10.3369 51.4336 10.0635 51.5117C9.67285 51.3685 9.24316 51.2969 8.77441 51.2969C8.59212 51.2969 8.40332 51.3034 8.20801 51.3164C8.02572 51.3294 7.84342 51.349 7.66113 51.375C7.46582 51.401 7.27051 51.4271 7.0752 51.4531C6.87988 51.4661 6.68457 51.4727 6.48926 51.4727C6.33301 51.4987 6.22233 51.5182 6.15723 51.5312C6.09212 51.5443 6.02702 51.5638 5.96191 51.5898C5.51921 51.7331 5.03744 51.8763 4.5166 52.0195C4.00879 52.1628 3.49447 52.2344 2.97363 52.2344C2.2054 52.2344 1.58691 52.0391 1.11816 51.6484C1.06608 51.5312 1.02702 51.4531 1.00098 51.4141C0.974935 51.375 0.948893 51.3294 0.922852 51.2773Z" fill="#8B9DFF"/>
<path d="M27.3643 41.0039C27.3773 41.0951 27.3773 41.1667 27.3643 41.2188C27.3643 41.2578 27.3577 41.2969 27.3447 41.3359C27.3447 41.375 27.3447 41.4206 27.3447 41.4727C27.3447 41.5117 27.3577 41.5768 27.3838 41.668C27.1104 42.1107 26.7913 42.4167 26.4268 42.5859C26.0752 42.7422 25.6911 42.8594 25.2744 42.9375C24.8577 43.0026 24.4281 43.0742 23.9854 43.1523C23.5557 43.2305 23.126 43.3997 22.6963 43.6602C22.527 43.5951 22.3708 43.5951 22.2275 43.6602C22.0973 43.7253 21.902 43.7448 21.6416 43.7188C21.5635 43.7969 21.4658 43.8555 21.3486 43.8945C21.2314 43.9206 21.1143 43.9531 20.9971 43.9922C21.0492 44.1094 21.0687 44.2331 21.0557 44.3633C21.0557 44.4805 21.0752 44.5781 21.1143 44.6562C21.57 44.6953 22.0713 44.6888 22.6182 44.6367C23.1781 44.5846 23.7249 44.5521 24.2588 44.5391C24.2718 44.6042 24.2653 44.6497 24.2393 44.6758C24.2132 44.6888 24.2067 44.7214 24.2197 44.7734C24.3109 44.8385 24.402 44.9232 24.4932 45.0273C24.5843 45.1185 24.6755 45.2096 24.7666 45.3008C24.8577 45.3919 24.9489 45.4701 25.04 45.5352C25.1442 45.5872 25.2614 45.6068 25.3916 45.5938C25.4437 45.6979 25.4762 45.8151 25.4893 45.9453C25.5153 46.0625 25.5023 46.1862 25.4502 46.3164C25.2419 46.4596 25.0335 46.6094 24.8252 46.7656C24.6169 46.9089 24.3955 47.0391 24.1611 47.1562C23.9398 47.2734 23.6989 47.3711 23.4385 47.4492C23.1911 47.5143 22.9111 47.5404 22.5986 47.5273C22.5335 47.5273 22.4814 47.5273 22.4424 47.5273C22.4163 47.5273 22.3773 47.5078 22.3252 47.4688C22.221 47.5339 22.0713 47.5534 21.876 47.5273C21.6937 47.5013 21.5505 47.5208 21.4463 47.5859C21.3031 47.5208 21.1273 47.4948 20.9189 47.5078C20.7236 47.5078 20.5479 47.4818 20.3916 47.4297C20.1833 47.7031 19.9945 47.9961 19.8252 48.3086C19.6559 48.6211 19.5062 48.9531 19.376 49.3047C19.8187 49.3698 20.1833 49.3958 20.4697 49.3828C20.7692 49.3698 21.0492 49.3503 21.3096 49.3242C21.57 49.2852 21.8369 49.2526 22.1104 49.2266C22.3838 49.1875 22.7288 49.1745 23.1455 49.1875C23.4059 49.0443 23.7119 48.9531 24.0635 48.9141C24.4281 48.862 24.7601 48.7839 25.0596 48.6797C25.1637 48.7188 25.2549 48.7904 25.333 48.8945C25.4111 48.9857 25.4827 49.0768 25.5479 49.168C25.626 49.2461 25.7041 49.3177 25.7822 49.3828C25.8604 49.4479 25.958 49.474 26.0752 49.4609C26.1273 49.513 26.1598 49.5781 26.1729 49.6562C26.1989 49.7214 26.2184 49.7865 26.2314 49.8516C26.2445 49.9167 26.264 49.9753 26.29 50.0273C26.3291 50.0664 26.3877 50.0794 26.4658 50.0664C26.2705 50.4961 26.0426 50.8281 25.7822 51.0625C25.5348 51.2839 25.2484 51.4531 24.9229 51.5703C24.5973 51.6875 24.2327 51.7786 23.8291 51.8438C23.4385 51.9089 23.0023 51.987 22.5205 52.0781C22.4033 52.1042 22.3057 52.0977 22.2275 52.0586C22.1494 52.0326 22.0583 52.0195 21.9541 52.0195C21.6546 52.0846 21.2965 52.1432 20.8799 52.1953C20.4632 52.2474 20.04 52.2669 19.6104 52.2539C19.1807 52.2409 18.7705 52.1823 18.3799 52.0781C17.9893 51.987 17.6702 51.8177 17.4229 51.5703C17.3187 51.4792 17.2471 51.375 17.208 51.2578C17.182 51.1276 17.0973 51.0299 16.9541 50.9648C16.9411 50.7956 16.915 50.6068 16.876 50.3984C16.8369 50.1901 16.7979 49.9753 16.7588 49.7539C16.7197 49.5195 16.6872 49.2917 16.6611 49.0703C16.6481 48.849 16.6611 48.6471 16.7002 48.4648C16.7393 48.2695 16.8174 48.0938 16.9346 47.9375C17.0648 47.7812 17.1104 47.612 17.0713 47.4297C17.1364 47.4167 17.1755 47.3841 17.1885 47.332C17.2015 47.2669 17.2536 47.2409 17.3447 47.2539C17.4229 47.0195 17.5075 46.7982 17.5986 46.5898C17.6898 46.3815 17.7809 46.1797 17.8721 45.9844C17.9762 45.7891 18.0739 45.5938 18.165 45.3984C18.2692 45.1901 18.3669 44.9622 18.458 44.7148C18.2757 44.5456 18.139 44.3633 18.0479 44.168C17.9697 43.9596 17.9111 43.7578 17.8721 43.5625C17.833 43.3542 17.8005 43.1458 17.7744 42.9375C17.7484 42.7161 17.7028 42.4948 17.6377 42.2734C17.7679 42.0781 17.9242 41.9219 18.1064 41.8047C18.3018 41.6745 18.5101 41.5703 18.7314 41.4922C18.9528 41.4141 19.1937 41.349 19.4541 41.2969C19.7145 41.2448 19.988 41.1862 20.2744 41.1211C20.7952 40.9518 21.2575 40.8216 21.6611 40.7305C22.0778 40.6393 22.4814 40.5677 22.8721 40.5156C23.2757 40.4505 23.6924 40.3919 24.1221 40.3398C24.5518 40.2878 25.04 40.2096 25.5869 40.1055C25.7041 40.2227 25.8148 40.2812 25.9189 40.2812C25.971 40.1641 26.0296 40.1315 26.0947 40.1836C26.1729 40.2227 26.2054 40.1836 26.1924 40.0664C26.3226 40.2878 26.4854 40.4766 26.6807 40.6328C26.889 40.776 27.1169 40.8997 27.3643 41.0039Z" fill="#8B9DFF"/>
<path d="M31.208 43.2109C31.2992 42.9375 31.4424 42.7031 31.6377 42.5078C31.846 42.3125 32.0674 42.1497 32.3018 42.0195C32.5492 41.8763 32.8031 41.7591 33.0635 41.668C33.3239 41.5768 33.5713 41.4987 33.8057 41.4336C34.3265 41.2122 34.8799 41.0039 35.4658 40.8086C36.0648 40.6003 36.6702 40.418 37.2822 40.2617C37.9072 40.1055 38.5452 40.0078 39.1963 39.9688C39.8473 39.9167 40.5309 39.9948 41.2471 40.2031C41.2861 40.3333 41.3447 40.457 41.4229 40.5742C41.501 40.6914 41.5791 40.8086 41.6572 40.9258C41.7484 41.043 41.8265 41.1602 41.8916 41.2773C41.9567 41.3815 41.9958 41.4922 42.0088 41.6094C42.139 41.7266 42.2432 41.8568 42.3213 42C42.3994 42.1302 42.4124 42.306 42.3604 42.5273C42.2301 42.6315 42.0999 42.7292 41.9697 42.8203C41.8525 42.8984 41.7223 42.9701 41.5791 43.0352C41.0973 42.918 40.6091 42.8789 40.1143 42.918C39.6195 42.957 39.1768 42.9896 38.7861 43.0156C38.6689 42.8984 38.5257 42.8398 38.3564 42.8398C38.2002 42.8398 38.0309 42.8659 37.8486 42.918C37.6794 42.9701 37.5036 43.0221 37.3213 43.0742C37.152 43.1263 36.9893 43.1393 36.833 43.1133C36.7028 43.2174 36.54 43.2891 36.3447 43.3281C36.1624 43.3542 35.9606 43.3802 35.7393 43.4062C35.7262 43.4714 35.7393 43.5169 35.7783 43.543C35.8174 43.556 35.8239 43.5951 35.7979 43.6602C35.876 43.7513 35.9736 43.8164 36.0908 43.8555C36.221 43.8945 36.3512 43.9336 36.4814 43.9727C36.6247 44.0117 36.7484 44.0638 36.8525 44.1289C36.9567 44.181 37.0283 44.2721 37.0674 44.4023C37.2627 44.4023 37.432 44.4479 37.5752 44.5391C37.7184 44.6302 37.8356 44.7409 37.9268 44.8711C38.0179 45.0013 38.083 45.1445 38.1221 45.3008C38.1742 45.444 38.2002 45.5742 38.2002 45.6914C38.2393 45.7956 38.2848 45.8411 38.3369 45.8281C38.389 45.8151 38.4476 45.8411 38.5127 45.9062C38.5518 46.0755 38.6494 46.2513 38.8057 46.4336C38.9619 46.6029 39.0856 46.7917 39.1768 47C39.2028 47.3255 39.2223 47.6185 39.2354 47.8789C39.2484 48.1263 39.2028 48.3802 39.0986 48.6406C38.9033 49.1224 38.6299 49.5521 38.2783 49.9297C37.9398 50.3073 37.5492 50.6458 37.1064 50.9453C36.6768 51.2318 36.2145 51.4792 35.7197 51.6875C35.2249 51.8958 34.7432 52.0716 34.2744 52.2148C34.2223 52.2018 34.1702 52.2018 34.1182 52.2148C34.0661 52.2279 34.0531 52.1953 34.0791 52.1172C33.9749 52.2083 33.8577 52.2669 33.7275 52.293C33.6104 52.319 33.4801 52.3255 33.3369 52.3125C33.1937 52.3125 33.0439 52.306 32.8877 52.293C32.7445 52.2799 32.6077 52.2865 32.4775 52.3125C32.3864 52.2214 32.3018 52.1302 32.2236 52.0391C32.1585 51.9609 32.1064 51.8568 32.0674 51.7266C32.0023 51.7266 31.9697 51.694 31.9697 51.6289C31.9827 51.5638 31.9632 51.5312 31.9111 51.5312C31.9893 51.401 32.0218 51.3294 32.0088 51.3164C32.0088 51.2904 31.9893 51.2708 31.9502 51.2578C31.9242 51.2448 31.8981 51.2318 31.8721 51.2188C31.846 51.1927 31.8395 51.1602 31.8525 51.1211C31.9046 51.0169 31.9242 50.8997 31.9111 50.7695C31.8981 50.6263 31.8851 50.4831 31.8721 50.3398C31.859 50.1966 31.8656 50.0599 31.8916 49.9297C31.9307 49.7995 32.0283 49.6953 32.1846 49.6172C32.6273 49.6693 33.0439 49.6562 33.4346 49.5781C33.8382 49.487 34.2158 49.3633 34.5674 49.207C34.9189 49.0508 35.251 48.8815 35.5635 48.6992C35.889 48.5169 36.208 48.3542 36.5205 48.2109C36.5596 48.0938 36.6117 47.9961 36.6768 47.918C36.7549 47.8398 36.833 47.7682 36.9111 47.7031C36.9893 47.638 37.0609 47.5664 37.126 47.4883C37.1911 47.4102 37.2367 47.3125 37.2627 47.1953C37.2757 47.1042 37.2497 47.0521 37.1846 47.0391C37.1325 47.013 37.1064 46.9609 37.1064 46.8828L36.8916 46.8242C36.6442 46.681 36.3643 46.5638 36.0518 46.4727C35.7393 46.3685 35.4723 46.2578 35.251 46.1406C35.1077 46.2188 34.971 46.2383 34.8408 46.1992C34.7236 46.1602 34.5674 46.1211 34.3721 46.082C33.9294 46.056 33.4997 46.0104 33.083 45.9453C32.6794 45.8802 32.2887 45.763 31.9111 45.5938C31.8851 45.5286 31.8525 45.4701 31.8135 45.418C31.7744 45.3659 31.7028 45.3529 31.5986 45.3789C31.5205 45.2747 31.4424 45.1771 31.3643 45.0859C31.2861 44.9818 31.2145 44.8711 31.1494 44.7539C31.1755 44.5977 31.195 44.4674 31.208 44.3633C31.221 44.2461 31.182 44.1354 31.0908 44.0312C31.1429 43.862 31.182 43.7253 31.208 43.6211C31.234 43.5169 31.234 43.3802 31.208 43.2109Z" fill="#8B9DFF"/>
<path d="M44.4854 43.2109C44.5765 42.9375 44.7197 42.7031 44.915 42.5078C45.1234 42.3125 45.3447 42.1497 45.5791 42.0195C45.8265 41.8763 46.0804 41.7591 46.3408 41.668C46.6012 41.5768 46.8486 41.4987 47.083 41.4336C47.6038 41.2122 48.1572 41.0039 48.7432 40.8086C49.3421 40.6003 49.9476 40.418 50.5596 40.2617C51.1846 40.1055 51.8226 40.0078 52.4736 39.9688C53.1247 39.9167 53.8083 39.9948 54.5244 40.2031C54.5635 40.3333 54.6221 40.457 54.7002 40.5742C54.7783 40.6914 54.8564 40.8086 54.9346 40.9258C55.0257 41.043 55.1038 41.1602 55.1689 41.2773C55.2341 41.3815 55.2731 41.4922 55.2861 41.6094C55.4163 41.7266 55.5205 41.8568 55.5986 42C55.6768 42.1302 55.6898 42.306 55.6377 42.5273C55.5075 42.6315 55.3773 42.7292 55.2471 42.8203C55.1299 42.8984 54.9997 42.9701 54.8564 43.0352C54.3747 42.918 53.8864 42.8789 53.3916 42.918C52.8968 42.957 52.4541 42.9896 52.0635 43.0156C51.9463 42.8984 51.8031 42.8398 51.6338 42.8398C51.4775 42.8398 51.3083 42.8659 51.126 42.918C50.9567 42.9701 50.7809 43.0221 50.5986 43.0742C50.4294 43.1263 50.2666 43.1393 50.1104 43.1133C49.9801 43.2174 49.8174 43.2891 49.6221 43.3281C49.4398 43.3542 49.238 43.3802 49.0166 43.4062C49.0036 43.4714 49.0166 43.5169 49.0557 43.543C49.0947 43.556 49.1012 43.5951 49.0752 43.6602C49.1533 43.7513 49.251 43.8164 49.3682 43.8555C49.4984 43.8945 49.6286 43.9336 49.7588 43.9727C49.902 44.0117 50.0257 44.0638 50.1299 44.1289C50.2341 44.181 50.3057 44.2721 50.3447 44.4023C50.54 44.4023 50.7093 44.4479 50.8525 44.5391C50.9958 44.6302 51.113 44.7409 51.2041 44.8711C51.2952 45.0013 51.3604 45.1445 51.3994 45.3008C51.4515 45.444 51.4775 45.5742 51.4775 45.6914C51.5166 45.7956 51.5622 45.8411 51.6143 45.8281C51.6663 45.8151 51.7249 45.8411 51.79 45.9062C51.8291 46.0755 51.9268 46.2513 52.083 46.4336C52.2393 46.6029 52.363 46.7917 52.4541 47C52.4801 47.3255 52.4997 47.6185 52.5127 47.8789C52.5257 48.1263 52.4801 48.3802 52.376 48.6406C52.1807 49.1224 51.9072 49.5521 51.5557 49.9297C51.2171 50.3073 50.8265 50.6458 50.3838 50.9453C49.9541 51.2318 49.4919 51.4792 48.9971 51.6875C48.5023 51.8958 48.0205 52.0716 47.5518 52.2148C47.4997 52.2018 47.4476 52.2018 47.3955 52.2148C47.3434 52.2279 47.3304 52.1953 47.3564 52.1172C47.2523 52.2083 47.1351 52.2669 47.0049 52.293C46.8877 52.319 46.7575 52.3255 46.6143 52.3125C46.471 52.3125 46.3213 52.306 46.165 52.293C46.0218 52.2799 45.8851 52.2865 45.7549 52.3125C45.6637 52.2214 45.5791 52.1302 45.501 52.0391C45.4359 51.9609 45.3838 51.8568 45.3447 51.7266C45.2796 51.7266 45.2471 51.694 45.2471 51.6289C45.2601 51.5638 45.2406 51.5312 45.1885 51.5312C45.2666 51.401 45.2992 51.3294 45.2861 51.3164C45.2861 51.2904 45.2666 51.2708 45.2275 51.2578C45.2015 51.2448 45.1755 51.2318 45.1494 51.2188C45.1234 51.1927 45.1169 51.1602 45.1299 51.1211C45.182 51.0169 45.2015 50.8997 45.1885 50.7695C45.1755 50.6263 45.1624 50.4831 45.1494 50.3398C45.1364 50.1966 45.1429 50.0599 45.1689 49.9297C45.208 49.7995 45.3057 49.6953 45.4619 49.6172C45.9046 49.6693 46.3213 49.6562 46.7119 49.5781C47.1156 49.487 47.4932 49.3633 47.8447 49.207C48.1963 49.0508 48.5283 48.8815 48.8408 48.6992C49.1663 48.5169 49.4854 48.3542 49.7979 48.2109C49.8369 48.0938 49.889 47.9961 49.9541 47.918C50.0322 47.8398 50.1104 47.7682 50.1885 47.7031C50.2666 47.638 50.3382 47.5664 50.4033 47.4883C50.4684 47.4102 50.514 47.3125 50.54 47.1953C50.5531 47.1042 50.527 47.0521 50.4619 47.0391C50.4098 47.013 50.3838 46.9609 50.3838 46.8828L50.1689 46.8242C49.9216 46.681 49.6416 46.5638 49.3291 46.4727C49.0166 46.3685 48.7497 46.2578 48.5283 46.1406C48.3851 46.2188 48.2484 46.2383 48.1182 46.1992C48.001 46.1602 47.8447 46.1211 47.6494 46.082C47.2067 46.056 46.777 46.0104 46.3604 45.9453C45.9567 45.8802 45.5661 45.763 45.1885 45.5938C45.1624 45.5286 45.1299 45.4701 45.0908 45.418C45.0518 45.3659 44.9801 45.3529 44.876 45.3789C44.7979 45.2747 44.7197 45.1771 44.6416 45.0859C44.5635 44.9818 44.4919 44.8711 44.4268 44.7539C44.4528 44.5977 44.4723 44.4674 44.4854 44.3633C44.4984 44.2461 44.4593 44.1354 44.3682 44.0312C44.4202 43.862 44.4593 43.7253 44.4854 43.6211C44.5114 43.5169 44.5114 43.3802 44.4854 43.2109Z" fill="#8B9DFF"/>
<path d="M68.4463 46.1406C68.4333 46.2969 68.4463 46.4466 68.4854 46.5898C68.5244 46.7331 68.57 46.8763 68.6221 47.0195C68.6872 47.1497 68.7458 47.2865 68.7979 47.4297C68.8499 47.5729 68.889 47.7161 68.915 47.8594C68.9411 48.0417 68.9411 48.2435 68.915 48.4648C68.889 48.6732 68.8434 48.8815 68.7783 49.0898C68.7132 49.2852 68.6286 49.4674 68.5244 49.6367C68.4202 49.793 68.2965 49.9102 68.1533 49.9883C67.971 50.2227 67.7497 50.4049 67.4893 50.5352C67.2288 50.6654 66.988 50.8216 66.7666 51.0039C66.6234 51.0951 66.4606 51.1602 66.2783 51.1992C66.109 51.2383 65.9333 51.2773 65.751 51.3164C65.6077 51.3945 65.4385 51.4792 65.2432 51.5703C65.0479 51.6484 64.846 51.7266 64.6377 51.8047C64.4294 51.8698 64.221 51.9219 64.0127 51.9609C63.8044 51.987 63.6221 51.9935 63.4658 51.9805C63.0752 52.1237 62.6911 52.2148 62.3135 52.2539C61.9489 52.306 61.5192 52.2799 61.0244 52.1758C60.5557 52.2409 60.1195 52.2214 59.7158 52.1172C59.3252 52.013 58.9736 51.8503 58.6611 51.6289C58.3617 51.3945 58.0947 51.1211 57.8604 50.8086C57.639 50.4831 57.4567 50.1445 57.3135 49.793C57.2093 49.0508 57.2354 48.3802 57.3916 47.7812C57.5479 47.1693 57.7692 46.6094 58.0557 46.1016C58.3551 45.5807 58.6937 45.1055 59.0713 44.6758C59.4489 44.2331 59.8135 43.8034 60.165 43.3867C60.2432 43.4128 60.3018 43.4128 60.3408 43.3867C60.3929 43.3477 60.4385 43.3021 60.4775 43.25C60.5166 43.1849 60.5557 43.1263 60.5947 43.0742C60.6468 43.0221 60.7054 42.9896 60.7705 42.9766C60.8617 42.7812 60.9919 42.638 61.1611 42.5469C61.3434 42.4427 61.4867 42.2995 61.5908 42.1172C61.708 42.0911 61.8057 42.0521 61.8838 42C61.9619 41.9479 62.0335 41.8893 62.0986 41.8242C62.1768 41.7591 62.2549 41.7005 62.333 41.6484C62.4111 41.5833 62.5023 41.5378 62.6064 41.5117V41.2969C62.8408 41.1927 63.0101 41.0755 63.1143 40.9453C63.2314 40.8021 63.3682 40.6328 63.5244 40.4375C63.6416 40.4245 63.7327 40.418 63.7979 40.418C63.876 40.418 63.9867 40.4049 64.1299 40.3789C64.234 40.1966 64.3252 40.0599 64.4033 39.9688C64.4945 39.8776 64.6247 39.7799 64.7939 39.6758C64.9502 39.7539 65.1195 39.806 65.3018 39.832C65.4971 39.8581 65.6663 39.9427 65.8096 40.0859C65.8226 40.2161 65.8617 40.3203 65.9268 40.3984C65.9919 40.4635 66.0635 40.5286 66.1416 40.5938C66.2197 40.6458 66.2913 40.7044 66.3564 40.7695C66.4346 40.8346 66.4867 40.9258 66.5127 41.043C66.5648 41.056 66.5973 41.0495 66.6104 41.0234C66.6364 40.9974 66.6755 40.9909 66.7275 41.0039C66.7666 41.1862 66.8122 41.3099 66.8643 41.375C66.9163 41.4271 66.9684 41.5378 67.0205 41.707C66.9554 41.8372 66.9033 41.974 66.8643 42.1172C66.8382 42.2474 66.7601 42.3451 66.6299 42.4102C66.6169 42.5013 66.6429 42.5534 66.708 42.5664C66.7731 42.5664 66.8122 42.599 66.8252 42.6641C66.8382 42.7812 66.8187 42.8659 66.7666 42.918C67.0791 43.4258 67.359 43.9661 67.6064 44.5391C67.8538 45.099 68.1338 45.6328 68.4463 46.1406ZM66.0049 47.9961C66.057 47.8529 66.1221 47.7357 66.2002 47.6445C66.2913 47.5534 66.3434 47.4167 66.3564 47.2344C66.2913 47.1302 66.2523 47.0521 66.2393 47C66.2262 46.9349 66.2197 46.8372 66.2197 46.707C65.9333 46.3034 65.6859 45.8737 65.4775 45.418C65.2692 44.9492 65.0348 44.513 64.7744 44.1094C64.7484 44.1615 64.7028 44.2135 64.6377 44.2656C64.5726 44.3177 64.501 44.3047 64.4229 44.2266C64.3968 44.3307 64.3512 44.4089 64.2861 44.4609C64.221 44.5 64.1494 44.5195 64.0713 44.5195C63.9932 44.5065 63.9085 44.487 63.8174 44.4609C63.7393 44.4219 63.6676 44.3763 63.6025 44.3242C63.2249 44.6237 62.8473 44.9167 62.4697 45.2031C62.0921 45.4896 61.7536 45.8216 61.4541 46.1992C61.402 46.2253 61.3695 46.2383 61.3564 46.2383C61.3434 46.2253 61.3044 46.2318 61.2393 46.2578C61.1351 46.5052 61.0049 46.7331 60.8486 46.9414C60.7054 47.1367 60.5622 47.3385 60.4189 47.5469C60.2757 47.7552 60.152 47.9766 60.0479 48.2109C59.9437 48.4453 59.8851 48.7188 59.8721 49.0312C60.0934 49.2135 60.3538 49.3242 60.6533 49.3633C60.9528 49.4023 61.2588 49.4089 61.5713 49.3828C61.8968 49.3568 62.2093 49.3177 62.5088 49.2656C62.8213 49.2005 63.1077 49.168 63.3682 49.168C63.915 49.0378 64.3838 48.8685 64.7744 48.6602C65.165 48.4388 65.5752 48.2174 66.0049 47.9961Z" fill="#8B9DFF"/>
<path d="M77.6416 48.4453C77.5244 48.4714 77.4398 48.543 77.3877 48.6602C77.3356 48.7643 77.2835 48.875 77.2314 48.9922C77.1924 49.1094 77.1468 49.2201 77.0947 49.3242C77.0557 49.4154 76.9906 49.4609 76.8994 49.4609C76.8864 49.5651 76.8473 49.6562 76.7822 49.7344C76.7301 49.8125 76.6781 49.8971 76.626 49.9883C76.5739 50.0664 76.5348 50.1576 76.5088 50.2617C76.4827 50.3529 76.4958 50.4635 76.5479 50.5938C76.4437 50.6719 76.3786 50.7826 76.3525 50.9258C76.3265 51.069 76.2939 51.2057 76.2549 51.3359C76.2288 51.4661 76.1768 51.5768 76.0986 51.668C76.0205 51.7591 75.8773 51.7982 75.6689 51.7852C75.6299 51.8372 75.6234 51.8698 75.6494 51.8828C75.6755 51.8958 75.695 51.9414 75.708 52.0195C75.5648 51.9935 75.4541 52 75.376 52.0391C75.3109 52.0911 75.2262 52.1237 75.1221 52.1367C74.8747 52.0586 74.6663 51.9219 74.4971 51.7266C74.3408 51.5312 74.1976 51.3164 74.0674 51.082C73.9502 50.8346 73.8395 50.5872 73.7354 50.3398C73.6442 50.0924 73.5531 49.8776 73.4619 49.6953C73.501 49.5521 73.5075 49.4154 73.4814 49.2852C73.4554 49.1419 73.4098 49.0247 73.3447 48.9336C73.9827 47.5794 74.6794 46.1341 75.4346 44.5977C76.1898 43.0612 76.9059 41.5443 77.583 40.0469C77.8825 40.1641 78.1755 40.3008 78.4619 40.457C78.7614 40.6003 79.0283 40.7695 79.2627 40.9648C79.5101 41.1602 79.7184 41.388 79.8877 41.6484C80.057 41.8958 80.1676 42.1758 80.2197 42.4883C80.1937 42.5664 80.1611 42.599 80.1221 42.5859C80.096 42.5599 80.07 42.5664 80.0439 42.6055C80.096 42.6706 80.1221 42.7161 80.1221 42.7422C80.1351 42.7682 80.1351 42.7943 80.1221 42.8203C80.1221 42.8464 80.1221 42.8854 80.1221 42.9375C80.1221 42.9766 80.1416 43.0352 80.1807 43.1133C80.1286 43.1003 80.0895 43.1068 80.0635 43.1328C80.0505 43.1589 80.0114 43.1589 79.9463 43.1328C79.9984 43.276 80.0114 43.3932 79.9854 43.4844C79.9723 43.5755 79.9463 43.6602 79.9072 43.7383C79.8682 43.8034 79.8356 43.8815 79.8096 43.9727C79.7835 44.0508 79.79 44.1549 79.8291 44.2852C79.79 44.2852 79.7575 44.2982 79.7314 44.3242C79.7184 44.3372 79.7054 44.3568 79.6924 44.3828C79.6794 44.3958 79.6598 44.4154 79.6338 44.4414C79.6208 44.4544 79.5947 44.4544 79.5557 44.4414C79.5947 44.7279 79.6077 45.0143 79.5947 45.3008C79.5817 45.5872 79.5687 45.8802 79.5557 46.1797C79.5557 46.4661 79.5622 46.7721 79.5752 47.0977C79.5882 47.4102 79.6338 47.7357 79.7119 48.0742C80.1807 47.8008 80.5518 47.4492 80.8252 47.0195C81.1117 46.5898 81.3395 46.1081 81.5088 45.5742C81.6911 45.0404 81.8278 44.4674 81.9189 43.8555C82.0101 43.2435 82.1077 42.6185 82.2119 41.9805C82.3291 41.8633 82.4202 41.7201 82.4854 41.5508C82.5505 41.3815 82.609 41.2057 82.6611 41.0234C82.7132 40.8281 82.7653 40.6393 82.8174 40.457C82.8695 40.2617 82.9346 40.0859 83.0127 39.9297C83.208 39.9557 83.3708 40.0208 83.501 40.125C83.6442 40.2161 83.7744 40.3203 83.8916 40.4375C84.0088 40.5417 84.1325 40.6458 84.2627 40.75C84.3929 40.8411 84.5557 40.8997 84.751 40.9258C84.9072 41.1471 85.0505 41.362 85.1807 41.5703C85.3109 41.7786 85.3955 42 85.4346 42.2344C85.3695 42.3385 85.3174 42.4557 85.2783 42.5859C85.2523 42.7161 85.2197 42.8464 85.1807 42.9766C85.1416 43.1068 85.0895 43.2305 85.0244 43.3477C84.9593 43.4518 84.8682 43.543 84.751 43.6211C84.7119 43.9596 84.6598 44.2721 84.5947 44.5586C84.5426 44.832 84.484 45.1055 84.4189 45.3789C84.3669 45.6523 84.3213 45.9388 84.2822 46.2383C84.2432 46.5247 84.2301 46.8438 84.2432 47.1953C84.139 47.4948 84.0283 47.8138 83.9111 48.1523C83.7939 48.4909 83.7028 48.7969 83.6377 49.0703C83.4294 49.2396 83.2666 49.4414 83.1494 49.6758C83.0322 49.9102 82.9085 50.1445 82.7783 50.3789C82.7262 50.431 82.6937 50.444 82.6807 50.418C82.6676 50.3919 82.6221 50.3724 82.5439 50.3594C82.557 50.4115 82.557 50.4505 82.5439 50.4766C82.5309 50.5026 82.5114 50.5286 82.4854 50.5547C82.4723 50.5677 82.4593 50.5938 82.4463 50.6328C82.4463 50.6719 82.4593 50.724 82.4854 50.7891C82.3031 50.8672 82.1403 50.9779 81.9971 51.1211C81.8538 51.2643 81.6976 51.3945 81.5283 51.5117C81.3721 51.6289 81.1768 51.707 80.9424 51.7461C80.721 51.7852 80.4281 51.7396 80.0635 51.6094C79.5296 51.2188 79.0544 50.7695 78.6377 50.2617C78.234 49.7539 77.902 49.1484 77.6416 48.4453Z" fill="#8B9DFF"/>
<path d="M73.6512 12.8143L72.113 13.5759M44.8024 14.7848L46.4452 15.3395L44.8024 14.7848ZM64.58 4.99276L64.0252 6.63551L64.58 4.99276ZM72.7292 24.2156L74.372 24.7703L72.7292 24.2156ZM52.624 5.71352L53.3856 7.25177L52.624 5.71352Z" stroke="#FFC700" stroke-width="2" stroke-linecap="round" stroke-linejoin="round"/>
<path d="M52.44 24.6843C51.4101 23.1842 50.8784 21.3981 50.92 19.579C50.9617 17.7599 51.5747 16.0001 52.6721 14.5487C53.7695 13.0973 55.2958 12.0281 57.0347 11.4923C58.7737 10.9566 60.6371 10.9816 62.361 11.5638C64.0849 12.1459 65.582 13.2557 66.6401 14.736C67.6982 16.2163 68.2638 17.992 68.2566 19.8115C68.2495 21.6311 67.6701 23.4023 66.6004 24.8742C65.5307 26.3461 64.0249 27.4442 62.2965 28.0128C61.4407 28.4311 60.6954 29.045 60.1209 29.8048C59.5464 30.5646 59.1588 31.4489 58.9895 32.3863C58.6952 33.2577 58.0669 33.9765 57.2427 34.3846C56.4184 34.7926 55.4659 34.8566 54.5945 34.5623C53.7231 34.2681 53.0043 33.6397 52.5962 32.8155C52.1882 31.9913 52.1242 31.0387 52.4185 30.1673C52.8521 29.3192 53.08 28.3809 53.0838 27.4284C53.0875 26.4758 52.867 25.5358 52.44 24.6843" stroke="#FFC700" stroke-width="2" stroke-linecap="round" stroke-linejoin="round"/>
<path d="M53.0352 26.7152L60.5918 29.2671" stroke="#FFC700" stroke-width="2" stroke-linecap="round" stroke-linejoin="round"/>
</svg>
