<svg width="256" height="225" viewBox="0 0 256 225" fill="none" xmlns="http://www.w3.org/2000/svg">
<path d="M254.5 118.148C245 177.648 194.758 223.672 131 224.148C64 224.648 4 172.018 4 112.648C4 53.2771 72 -4.85248 131 0.647652C188 -6.85254 265.074 51.9194 254.5 118.148Z" fill="#8B9DFF"/>
<path fill-rule="evenodd" clip-rule="evenodd" d="M79.8868 144.158C83.6954 139.26 85.8294 133.267 85.974 127.064C85.974 117.559 80.5536 110.221 69.9588 105.3C61.0452 101.337 51.3637 99.4015 41.6119 99.6317C36.3864 99.648 31.1712 100.094 26.0189 100.965C20.8289 101.612 15.7678 103.046 11.0097 105.218C8.67541 106.469 7.50775 107.97 7.50677 109.721C7.50677 111.305 8.42398 111.639 9.25386 111.639C9.80883 111.638 10.3543 111.494 10.8379 111.222C20.7334 105.761 31.8913 103 43.1916 103.215C51.5374 103.023 59.8228 104.675 67.4575 108.051C76.4668 112.298 81.053 118.559 81.053 126.566C80.9357 131.999 79.0964 137.255 75.8 141.575C72.6598 145.95 68.7962 149.757 64.3753 152.833C57.3709 143.66 44.1117 138.824 25.0172 138.323C30.297 127.521 36.5488 117.222 43.6953 107.553C43.6953 107.47 43.9457 106.719 43.9457 106.719C43.9457 106.386 43.8628 105.468 42.1113 105.468C41.0202 105.377 39.9236 105.558 38.9195 105.995C37.9154 106.431 37.0351 107.11 36.3575 107.97C34.4806 110.766 32.7548 113.661 31.1874 116.641C27.2681 123.813 23.7622 131.067 20.68 138.321C15.8193 138.538 11.1018 140.033 7.00448 142.657C2.33532 145.91 0 149.912 0 154.832C0 159.002 2.91185 162.42 8.6715 164.838C13.0376 166.665 17.6997 167.683 22.43 167.84L26.8502 168.008C39.9233 168.239 52.8112 164.894 64.122 158.335C64.9562 159.499 65.3726 159.919 65.7905 159.919C66.3728 159.919 67.2085 159.668 67.2085 158.084C67.1603 157.616 67.0187 157.163 66.7922 156.751C71.892 153.393 76.3299 149.125 79.8839 144.16L79.8868 144.158ZM254.416 140.239C254.249 140.239 253.915 140.239 249.996 144.993C247.412 147.995 245.576 149.496 244.242 149.496C242.495 149.496 241.573 147.328 241.573 142.908C241.573 137.988 242.325 134.235 243.824 131.818C244.15 131.455 244.592 131.219 245.075 131.151C245.325 130.984 245.491 130.984 245.491 130.735L245.158 129.9C244.598 129.06 243.823 128.384 242.914 127.944C242.005 127.504 240.995 127.316 239.988 127.399C238.84 127.37 237.701 127.598 236.652 128.066C233.65 129.151 230.392 132.068 227.313 136.822C224.06 141.658 222.476 145.578 222.476 148.906C222.476 151.24 223.56 152.408 225.729 152.409C228.981 152.409 232.571 148.991 236.735 141.902C236.652 142.653 236.652 143.649 236.652 143.649C236.652 149.32 238.654 152.154 242.74 152.154C243.989 152.127 245.216 151.813 246.326 151.237C248.827 149.986 251.496 147.067 254.333 142.481C254.67 142.04 254.898 141.526 255 140.98C255 140.398 254.667 140.23 254.418 140.23L254.416 140.239ZM232.569 144.742C230.4 147.577 228.649 148.995 227.316 148.995C226.649 148.995 226.231 148.413 226.231 147.248C226.231 144.336 228.233 140.405 232.068 135.908C234.819 132.655 237.321 131.071 239.739 131.071C239.901 131.122 240.07 131.15 240.24 131.154C238.352 136.03 235.768 140.607 232.567 144.742H232.569ZM219.059 124.819C216.558 124.819 213.889 126.566 210.721 130.157C208.931 132.197 207.34 134.403 205.967 136.745C206.884 133.743 207.969 131.908 211.137 126.488L211.804 125.403C215.974 118.148 220.31 114.813 225.73 114.562C233.819 113.98 238.656 112.311 240.824 109.475C241.164 108.476 241.387 107.441 241.49 106.39C241.516 106.234 241.498 106.074 241.439 105.927C241.381 105.78 241.283 105.652 241.157 105.556C240.741 105.139 239.906 105.556 238.828 106.138L236.409 107.303C235.009 107.842 233.556 108.233 232.073 108.468C228.964 109.059 225.92 109.953 222.984 111.136C213.229 115.472 204.389 129.398 201.136 139.906C201.012 139.83 200.864 139.801 200.72 139.823C200.053 139.823 199.555 140.323 198.886 141.073C194.216 146.91 189.713 149.829 185.46 149.829C182.208 149.829 180.624 147.995 180.624 144.243C180.745 141.506 181.61 138.854 183.125 136.571C184.96 133.737 186.962 132.236 189.129 132.236C190.631 132.236 191.297 132.818 191.297 133.983L190.63 136.569C190.625 136.662 190.637 136.755 190.668 136.843C190.698 136.931 190.746 137.013 190.808 137.082C190.87 137.152 190.945 137.209 191.029 137.249C191.113 137.29 191.204 137.313 191.297 137.318C192.049 137.318 192.881 136.484 193.799 134.9C194.514 133.846 194.997 132.652 195.217 131.397C195.217 130.146 194.634 128.728 191.881 128.728C188.879 128.728 185.461 130.646 181.875 134.482C179.712 136.615 178.059 139.209 177.038 142.07C176.204 142.57 174.787 143.571 172.785 145.073C173.036 144.406 173.286 143.655 173.286 143.655L174.036 141.82C174.349 141.168 174.628 140.5 174.87 139.818C175.322 138.815 175.711 137.785 176.035 136.733C176.472 135.355 176.724 133.925 176.785 132.48C176.785 130.896 176.284 129.812 175.118 129.395C173.2 128.478 172.616 128.478 172.283 128.728C172.115 128.811 172.115 128.979 172.115 129.145C172.102 129.343 172.13 129.541 172.198 129.727L172.281 130.061C172.369 130.331 172.426 130.611 172.449 130.895C172.434 131.207 172.377 131.515 172.281 131.812C171.281 134.481 168.863 137.149 165.11 139.901C165.364 138.977 165.504 138.025 165.526 137.066C165.526 131.813 163.108 129.228 158.188 129.228C152.184 129.228 148.598 134.565 145.846 139.901C145.555 140.233 145.355 140.634 145.264 141.066C145.263 141.15 145.28 141.233 145.315 141.31C145.349 141.387 145.4 141.455 145.463 141.511C145.526 141.566 145.601 141.607 145.682 141.631C145.762 141.654 145.847 141.661 145.931 141.648C146.597 141.648 147.264 140.981 147.765 140.398L148.015 140.147L148.098 140.064C150.767 135.311 152.519 132.143 156.688 132.143C159.941 132.143 161.525 133.977 161.525 137.813C161.402 140.524 160.537 143.149 159.024 145.402C157.277 148.314 155.187 149.737 153.02 149.737C151.518 149.737 150.852 149.237 150.852 148.07L151.518 145.485C151.518 144.733 151.018 144.733 150.852 144.733C150.102 144.733 149.351 145.4 148.35 147.152C147.647 148.212 147.165 149.404 146.932 150.655C146.932 151.819 147.515 153.323 150.268 153.323C153.353 153.323 156.688 151.406 160.357 147.57C161.928 145.908 163.249 144.026 164.277 141.983C164.402 142.059 164.549 142.088 164.693 142.066C165.11 142.234 166.277 141.899 170.53 138.563C170.193 140.067 169.748 141.544 169.196 142.983L168.614 144.818L167.78 146.986C167.313 148.388 167.033 149.846 166.945 151.321C166.86 151.935 166.977 152.56 167.278 153.101C167.579 153.643 168.048 154.072 168.614 154.324C170.531 155.241 171.115 155.241 171.449 154.99C171.512 154.925 171.56 154.846 171.589 154.759C171.618 154.672 171.627 154.58 171.616 154.49C171.635 154.264 171.607 154.037 171.533 153.823V153.655C171.45 153.572 170.866 152.821 170.866 152.821C170.616 152.571 170.533 152.405 170.533 152.239V152.071C171.866 149.145 173.97 146.637 176.62 144.816V144.984C176.62 150.154 179.038 152.823 183.958 152.823C186.594 152.776 189.165 151.997 191.383 150.572C194.899 148.208 197.998 145.278 200.556 141.9C200.071 143.641 199.791 145.432 199.721 147.238C199.721 150.907 201.055 152.741 203.558 152.741C204.307 152.741 204.307 152.24 204.307 152.074L203.807 151.24C203.281 150.802 202.952 150.174 202.889 149.493C202.889 146.824 204.558 142.822 207.809 137.486C211.312 131.815 214.07 128.896 216.064 128.896C216.814 128.896 217.149 129.896 217.149 131.73C217.205 134.957 216.611 138.162 215.402 141.153C214.162 144.281 212.415 147.184 210.232 149.743C207.563 152.911 204.728 154.58 201.977 154.58C201.204 154.533 200.445 154.364 199.726 154.079L198.725 153.912L198.059 154.079L197.891 154.746C197.891 156.493 200.976 156.493 201.977 156.493C205.751 156.296 209.305 154.654 211.9 151.907C214.645 149.316 216.88 146.233 218.488 142.817C220.756 138.601 222.039 133.925 222.24 129.142C222.227 126.23 221.144 124.819 219.059 124.819ZM136.339 151.419C137.504 146.416 138.507 141.412 139.424 136.159C140.175 131.907 140.675 128.905 140.675 127.987C140.675 127.571 140.424 126.903 138.673 126.903C136.505 126.903 136.087 127.987 136.004 128.571C127.915 144.249 124.664 147.583 123.329 147.583C122.412 147.583 121.911 146.665 121.911 144.831C122.174 142.538 122.972 140.339 124.24 138.41C125.183 136.987 125.993 135.479 126.658 133.907C126.658 133.657 126.576 132.822 125.074 132.822C123.073 132.822 121.405 134.489 119.904 137.992C119.39 139.189 118.944 140.414 118.571 141.661C112.817 148.504 107.481 152.252 102.644 152.751C106.023 150.107 108.736 146.708 110.566 142.828C113.235 137.825 114.651 133.405 114.651 129.568C114.651 125.649 112.817 124.815 111.316 124.815C108.986 124.815 106.063 126.9 102.726 130.985C100.79 133.571 99.0125 136.271 97.4031 139.071C97.4031 138.321 97.5705 134.651 97.5705 134.651C97.5705 130.148 96.4058 127.808 94.0675 127.808C91.4818 127.808 90.815 127.976 90.815 128.475L91.2314 129.392C91.6008 129.877 91.8314 130.453 91.8982 131.059C91.8982 134.144 90.4801 137.647 87.7284 141.567L87.395 142.484C87.395 143.318 87.8959 143.401 88.2293 143.401C88.7301 143.401 89.7303 142.734 92.565 138.148C92.565 139.566 92.648 143.235 92.648 143.235V143.736C92.4806 143.904 80.3061 160.58 80.3061 160.58C74.4693 169.253 71.6346 175.005 71.6346 178.175C71.6346 180.76 72.5518 182.011 74.3033 182.011C77.3884 182.011 81.3908 178.092 86.2274 170.253C89.3088 165.162 91.9862 159.836 94.235 154.326C95.1083 154.589 96.0005 154.783 96.9037 154.909H99.405L101.989 154.992C104.824 154.992 108.327 153.491 112.497 150.406C114.485 149.008 116.329 147.416 118 145.652C118.083 150.155 119.835 151.073 121.336 151.073C122.293 150.981 123.222 150.698 124.067 150.24C124.913 149.781 125.657 149.157 126.255 148.404C128.175 146.33 129.879 144.067 131.342 141.65C132.599 139.82 133.714 137.896 134.678 135.896C133.677 142.317 132.76 147.737 131.926 151.573C123.415 153.145 115.322 156.467 108.161 161.328C98.4062 167.589 93.4007 174.252 93.4007 181.174C93.4007 187.094 97.9869 191.346 104.491 191.346C112.412 191.346 119.923 186.176 126.838 176.087C130.507 170.749 133.509 163.329 135.927 153.823H137.511C138.711 153.714 139.914 154.008 140.929 154.657L141.18 154.74C141.277 154.74 141.371 154.707 141.447 154.647C141.523 154.586 141.575 154.501 141.596 154.407L141.764 153.906C141.749 153.353 141.543 152.823 141.181 152.405C140.347 151.653 138.763 151.32 136.345 151.404L136.339 151.419ZM91.31 152.17C90.3211 156.398 88.9538 160.529 87.2247 164.512C81.2204 175.769 77.7189 178.105 75.8844 178.105C75.8015 178.105 75.551 178.105 75.551 177.522C75.551 176.773 76.0519 174.611 79.054 168.851C80.5795 165.864 82.2781 162.968 84.141 160.179L86.3919 156.927L91.0611 150.005C91.234 149.765 91.429 149.542 91.6434 149.338C91.3881 149.887 91.2465 150.481 91.227 151.086L91.31 152.17ZM99.0657 152.17C97.9059 151.188 96.8699 150.068 95.9806 148.835C97.1565 145.029 98.6922 141.343 100.567 137.828C103.151 132.991 105.486 130.074 107.654 129.072L108.489 128.905C109.406 128.905 109.822 129.822 109.822 131.573C109.587 135.679 108.478 139.688 106.57 143.331C104.236 147.993 101.733 150.912 99.0657 152.163V152.17ZM124.415 174.517C122.331 178.282 119.623 181.665 116.407 184.524C112.571 187.776 108.902 189.444 104.983 189.444C103.9 189.518 102.814 189.364 101.796 188.992C100.777 188.619 99.8477 188.036 99.0691 187.281C98.2904 186.526 97.6794 185.615 97.276 184.608C96.8726 183.601 96.6857 182.52 96.7275 181.436C96.7275 177.016 99.1458 172.514 103.899 168.011C111.963 161.244 121.457 156.397 131.667 153.834C130.466 161.095 128.012 168.091 124.415 174.512V174.517ZM25.2662 164.844H22.5975C18.8963 164.76 15.2453 163.97 11.8411 162.515C7.58829 160.768 5.42041 158.262 5.42041 155.089C5.42041 148.085 9.92359 143.832 19.013 142.164C15.427 151.003 13.6755 156.839 13.6755 160.092C13.6755 162.26 14.4254 163.345 15.7604 163.345C16.3428 163.345 17.2615 163.094 17.2615 161.597L17.0111 159.85C17.0111 156.765 19.1789 150.678 23.4317 141.589C23.7651 141.589 26.1004 141.506 26.1004 141.506C32.675 141.63 39.1836 142.842 45.3624 145.092C52.7003 147.593 58.1207 150.845 61.4562 154.765C50.6055 161.516 38.0458 165.012 25.2677 164.838L25.2662 164.844Z" fill="#FAD53E"/>
<path fill-rule="evenodd" clip-rule="evenodd" d="M134.838 79.8663C134.838 82.9514 134.921 84.119 134.921 85.1193C142.258 93.5418 145.677 103.131 144.927 105.298C145.663 105.951 146.359 106.647 147.012 107.383C147.179 107.216 147.345 107.133 147.345 107.05C148.846 104.55 145.345 90.8745 134.838 79.8663ZM110.489 101.123C96.2292 92.4513 88.0571 80.0264 92.1439 73.3553C96.0632 66.8517 110.155 68.1853 123.998 76.19C123.998 74.7719 123.998 73.1879 123.915 71.2704C106.403 61.0134 88.309 59.4294 83.139 67.8519C77.886 76.5249 88.2259 92.3683 106.154 103.291C117.244 110.045 129.919 110.716 138.259 109.628C137.417 108.858 136.638 108.022 135.929 107.127C128.918 107.385 118.828 106.217 110.489 101.13V101.123Z" fill="white"/>
<path fill-rule="evenodd" clip-rule="evenodd" d="M147.679 28C136.177 28 126.831 47.4294 126.831 71.4449C126.831 95.3775 145.01 113.722 147.679 113.722C151.849 113.722 168.609 95.3775 168.609 71.4449C168.609 47.4294 159.271 28 147.679 28ZM147.679 110.387C145.594 110.387 131.502 93.2925 131.502 74.364C131.502 55.351 138.757 39.9255 147.679 39.9255C156.685 39.9255 163.939 55.3583 163.939 74.364C163.939 93.2925 150.931 110.387 147.679 110.387Z" fill="#EC5632"/>
<path fill-rule="evenodd" clip-rule="evenodd" d="M160.771 79.8663C160.771 82.9514 160.688 84.119 160.688 85.1193C153.35 93.5418 149.931 103.131 150.681 105.298C149.945 105.951 149.249 106.647 148.596 107.383C148.429 107.216 148.263 107.133 148.263 107.05C146.759 104.55 150.265 90.8745 160.771 79.8663ZM185.12 101.123C199.379 92.4513 207.551 80.0264 203.464 73.3553C199.545 66.8517 185.453 68.1853 171.61 76.19C171.61 74.7719 171.61 73.1879 171.693 71.2704C189.205 61.0134 207.299 59.4294 212.469 67.8519C217.722 76.5249 207.467 92.3683 189.454 103.291C178.364 110.045 165.689 110.716 157.349 109.628C158.191 108.858 158.97 108.022 159.679 107.127C166.775 107.385 176.782 106.217 185.12 101.13V101.123Z" fill="#88161D"/>
</svg>
